<svg width="30" height="36" viewBox="0 0 30 36" fill="none" xmlns="http://www.w3.org/2000/svg">
<path d="M14.4006 0.889465C10.5655 0.889465 6.87688 2.43615 4.01718 5.24509C3.39933 5.85252 3.03195 6.68816 2.98579 7.59897C2.93903 8.5091 3.21656 9.38537 3.76857 10.0659C4.35626 10.7912 5.20057 11.2083 6.08488 11.2083C6.84734 11.2083 7.58088 10.9009 8.15073 10.3415C9.87258 8.6513 12.0923 7.72018 14.4018 7.72018C19.5809 7.72018 23.7938 12.3568 23.7938 18.0553C23.7938 23.7538 19.5809 28.3904 14.4018 28.3904C13.4067 28.3904 12.4412 28.2238 11.5163 27.8947L12.5526 27.3462C12.9803 27.12 13.2554 26.7009 13.288 26.2255C13.3206 25.7508 13.1064 25.2903 12.7138 24.9957L2.84549 17.5732C2.61349 17.3984 2.35502 17.307 2.09718 17.307C1.46148 17.307 0.963636 17.8488 0.912559 18.5937L0.00424991 31.7106C-0.0240578 32.1271 0.0897885 32.5104 0.323635 32.788C0.678713 33.2099 1.26087 33.3129 1.7741 33.042L4.69903 31.4967C7.47257 33.9338 10.8264 35.2211 14.4012 35.2211C23.0024 35.2211 30 27.5209 30 18.056C30 8.59104 23.0018 0.889465 14.4006 0.889465ZM14.4006 33.1883C11.2406 33.1883 8.27627 32.0472 5.82888 29.8884C5.5218 29.6182 5.10395 29.4631 4.68303 29.4631C4.41903 29.4631 4.16303 29.5247 3.9421 29.6412L1.92487 30.7071L2.67256 19.9033L10.8018 26.0162L9.40734 26.7544C8.95319 26.9941 8.67996 27.4356 8.67627 27.9327C8.67257 28.429 8.93657 28.8733 9.38335 29.1191C10.9495 29.9825 12.6381 30.4213 14.4012 30.4213C20.5969 30.4213 25.6394 24.8738 25.6394 18.0546C25.6394 11.2354 20.5981 5.68796 14.4012 5.68796C11.6381 5.68796 8.9815 6.80193 6.9218 8.82466C6.69103 9.05152 6.3938 9.1768 6.08488 9.1768C5.72672 9.1768 5.38457 9.00818 5.14641 8.7136C4.68487 8.14477 4.7298 7.2685 5.24734 6.76062C7.76919 4.28485 11.0197 2.92101 14.4018 2.92101C21.9852 2.92101 28.1545 9.70974 28.1545 18.0546C28.1545 26.4002 21.9846 33.1883 14.4006 33.1883Z" fill="#444444"/>
</svg>
