<svg width="20" height="20" viewBox="0 0 20 20" fill="none" xmlns="http://www.w3.org/2000/svg">
<path d="M4.38086 4.91016H15.2441C15.5234 4.91016 15.75 5.13672 15.75 5.41602V15.2168C15.75 15.4961 15.5234 15.7227 15.2441 15.7227H4.38086C4.10156 15.7227 3.875 15.4961 3.875 15.2168V5.41602C3.875 5.13672 4.10156 4.91016 4.38086 4.91016Z" fill="white"/>
<path d="M15.2441 16.2266H4.38086C3.82422 16.2266 3.37109 15.7734 3.37109 15.2168V5.41602C3.37109 4.85937 3.82422 4.40625 4.38086 4.40625H15.2441C15.8008 4.40625 16.2539 4.85937 16.2539 5.41602V15.2168C16.2539 15.7734 15.8008 16.2266 15.2441 16.2266ZM4.38086 5.41602V15.2168H15.2441V5.41602H4.38086Z" fill="#333333"/>
<path d="M4.38086 5.41016H15.4844V8.38086H4.38086V5.41016Z" fill="#FFDB5B"/>
<path d="M3.875 7.80273H16.2539V8.81445H3.875V7.80273ZM9.67969 12.4766L11.6523 10.5039C11.8828 10.2734 12.2559 10.2734 12.4863 10.5039L12.4883 10.5059C12.7188 10.7363 12.7188 11.1094 12.4883 11.3398L10.1309 13.6953C10.0078 13.8184 9.8418 13.877 9.67969 13.8672C9.51758 13.877 9.35352 13.8184 9.22852 13.6953L7.74414 12.2109C7.51367 11.9805 7.51367 11.6074 7.74414 11.377L7.74609 11.375C7.97656 11.1445 8.34961 11.1445 8.58008 11.375L9.67969 12.4766Z" fill="#333333"/>
<path d="M6.40039 3.25781C6.67969 3.25781 6.90625 3.48437 6.90625 3.76367V4.52148H5.89648V3.76367C5.89648 3.48242 6.12305 3.25781 6.40039 3.25781ZM12.9707 3.25781C13.25 3.25781 13.4766 3.48437 13.4766 3.76367V4.52148H12.4668V3.76367C12.4648 3.48242 12.6914 3.25781 12.9707 3.25781Z" fill="#333333"/>
</svg>
