<svg width="30" height="27" viewBox="0 0 30 27" fill="none" xmlns="http://www.w3.org/2000/svg">
<path d="M9.75008 18.4151C9.63804 18.4151 9.52601 18.4328 9.41914 18.4704C8.81164 18.6838 8.17273 18.8208 7.50008 18.8208C6.82742 18.8208 6.18851 18.6838 5.58054 18.4704C5.47367 18.4328 5.36211 18.4151 5.25008 18.4151C2.34101 18.4151 -0.015393 20.9748 7.57256e-05 24.1258C0.00663823 25.4574 1.01867 26.5283 2.25008 26.5283H12.7501C13.9815 26.5283 14.9935 25.4574 15.0001 24.1258C15.0155 20.9748 12.6591 18.4151 9.75008 18.4151ZM7.50008 16.7925C9.98539 16.7925 12.0001 14.613 12.0001 11.9245C12.0001 9.23602 9.98539 7.05661 7.50008 7.05661C5.01476 7.05661 3.00008 9.23602 3.00008 11.9245C3.00008 14.613 5.01476 16.7925 7.50008 16.7925ZM27.7501 0.56604H9.75008C8.50929 0.56604 7.50008 1.69428 7.50008 3.08063V5.43396C8.59789 5.43396 9.61414 5.77776 10.5001 6.33656V3.81132H27.0001V18.4151H24.0001V15.1698H18.0001V18.4151H14.4263C15.3216 19.2614 15.9788 20.379 16.2868 21.6604H27.7501C28.9909 21.6604 30.0001 20.5321 30.0001 19.1458V3.08063C30.0001 1.69428 28.9909 0.56604 27.7501 0.56604Z" fill="white"/>
</svg>
