<svg width="30" height="30" viewBox="0 0 30 30" fill="none" xmlns="http://www.w3.org/2000/svg">
<path d="M16.1194 28.125H6.13126C5.49605 28.121 4.88842 27.865 4.4419 27.4132C3.99538 26.9614 3.74651 26.3508 3.75001 25.7156V4.28438C3.74751 3.64915 3.99695 3.03884 4.44366 2.58721C4.89037 2.13557 5.49791 1.87946 6.13313 1.875H24.1106C24.7465 1.87996 25.3544 2.13706 25.8009 2.58985C26.2474 3.04265 26.4959 3.65412 26.4919 4.29V16.1775C26.4974 16.2955 26.4788 16.4134 26.4374 16.5241C26.396 16.6348 26.3326 16.7359 26.251 16.8213C26.1695 16.9068 26.0714 16.9748 25.9628 17.0213C25.8541 17.0678 25.7372 17.0917 25.6191 17.0917C25.5009 17.0917 25.384 17.0678 25.2754 17.0213C25.1667 16.9748 25.0687 16.9068 24.9871 16.8213C24.9055 16.7359 24.8421 16.6348 24.8007 16.5241C24.7593 16.4134 24.7408 16.2955 24.7463 16.1775V4.29375C24.7493 4.12133 24.6839 3.95472 24.5645 3.83034C24.445 3.70597 24.2812 3.63394 24.1088 3.63H6.13501C6.04989 3.63146 5.9659 3.64971 5.88786 3.6837C5.80981 3.71768 5.73924 3.76674 5.68019 3.82805C5.62114 3.88937 5.57477 3.96174 5.54374 4.04101C5.51272 4.12028 5.49764 4.20489 5.49938 4.29V25.7213C5.49663 25.8059 5.51078 25.8903 5.541 25.9694C5.57122 26.0485 5.6169 26.1208 5.67538 26.1821C5.73385 26.2434 5.80396 26.2924 5.88158 26.3262C5.95921 26.3601 6.04282 26.3782 6.12751 26.3794H16.1194C16.3439 26.3895 16.5558 26.4858 16.7112 26.6482C16.8666 26.8106 16.9534 27.0266 16.9536 27.2513C16.9539 27.476 16.8675 27.6922 16.7125 27.8549C16.5575 28.0176 16.3457 28.1144 16.1213 28.125H16.1194ZM21.8719 10.5188H8.37376C8.14177 10.5188 7.91929 10.4266 7.75526 10.2626C7.59122 10.0985 7.49907 9.87604 7.49907 9.64406C7.49907 9.41208 7.59122 9.1896 7.75526 9.02557C7.91929 8.86153 8.14177 8.76937 8.37376 8.76937H21.8738C22.1057 8.76938 22.3282 8.86153 22.4923 9.02557C22.6563 9.1896 22.7484 9.41208 22.7484 9.64406C22.7484 9.87604 22.6563 10.0985 22.4923 10.2626C22.3282 10.4266 22.1057 10.5188 21.8738 10.5188H21.8719ZM15.8719 15.1125H8.37376C8.14177 15.1125 7.91929 15.0203 7.75526 14.8563C7.59122 14.6923 7.49907 14.4698 7.49907 14.2378C7.49907 14.0058 7.59122 13.7834 7.75526 13.6193C7.91929 13.4553 8.14177 13.3631 8.37376 13.3631H15.8719C15.9866 13.3631 16.1002 13.3857 16.2063 13.4296C16.3123 13.4735 16.4086 13.5379 16.4897 13.619C16.5709 13.7002 16.6352 13.7965 16.6791 13.9025C16.723 14.0085 16.7456 14.1221 16.7456 14.2369C16.7456 14.3516 16.723 14.4652 16.6791 14.5712C16.6352 14.6773 16.5709 14.7736 16.4897 14.8547C16.4086 14.9358 16.3123 15.0002 16.2063 15.0441C16.1002 15.088 15.9866 15.1106 15.8719 15.1106V15.1125ZM21.1219 26.595C18.1594 26.595 15.7481 24.1388 15.7481 21.1275C15.7481 20.8955 15.8403 20.673 16.0043 20.509C16.1684 20.345 16.3908 20.2528 16.6228 20.2528C16.8548 20.2528 17.0773 20.345 17.2413 20.509C17.4054 20.673 17.4975 20.8955 17.4975 21.1275C17.4975 23.1787 19.125 24.8475 21.1181 24.8475C21.6281 24.8475 22.1213 24.7388 22.5844 24.5287C22.7935 24.4446 23.0269 24.4444 23.2362 24.5281C23.4455 24.6117 23.6144 24.7729 23.7079 24.9779C23.8014 25.183 23.8122 25.4162 23.7381 25.6291C23.664 25.8419 23.5106 26.018 23.31 26.1206C22.62 26.4338 21.885 26.595 21.1219 26.595ZM25.6219 22.0013C25.3901 22.0013 25.1679 21.9092 25.004 21.7453C24.8402 21.5815 24.7481 21.3592 24.7481 21.1275C24.7481 19.0763 23.1206 17.4075 21.1256 17.4075C20.6475 17.4075 20.1769 17.5013 19.7381 17.6888C19.5274 17.7663 19.2949 17.7599 19.0887 17.6709C18.8826 17.5819 18.7185 17.4171 18.6304 17.2105C18.5423 17.004 18.5369 16.7715 18.6153 16.5611C18.6938 16.3507 18.8501 16.1785 19.0519 16.08C19.7077 15.8015 20.4131 15.6586 21.1256 15.66C24.0881 15.66 26.4994 18.1162 26.4994 21.1275C26.4979 21.3594 26.4049 21.5814 26.2405 21.745C26.0762 21.9087 25.8538 22.0008 25.6219 22.0013ZM19.6219 18.9375H18.12C17.9717 18.9374 17.8258 18.8995 17.6962 18.8273C17.5666 18.7551 17.4575 18.6511 17.3794 18.525C17.3013 18.3989 17.2563 18.2551 17.2484 18.107C17.2405 17.9589 17.2701 17.8112 17.3344 17.6775L18.0844 16.1437C18.155 15.9952 18.2663 15.8698 18.4054 15.782C18.5444 15.6941 18.7055 15.6475 18.87 15.6475C19.0345 15.6475 19.1956 15.6941 19.3346 15.782C19.4737 15.8698 19.585 15.9952 19.6556 16.1437L20.4056 17.6775C20.4714 17.8107 20.502 17.9585 20.4944 18.1069C20.4869 18.2552 20.4414 18.3992 20.3625 18.525C20.2849 18.6516 20.176 18.756 20.0462 18.8283C19.9165 18.9005 19.7704 18.9381 19.6219 18.9375ZM23.3588 26.835H23.3288C23.1801 26.8309 23.0351 26.7887 22.9074 26.7125C22.7797 26.6364 22.6737 26.5288 22.5994 26.4L21.8494 25.1025C21.7757 24.9739 21.7359 24.8288 21.7336 24.6806C21.7313 24.5324 21.7667 24.3861 21.8364 24.2553C21.9061 24.1246 22.0078 24.0136 22.1321 23.9329C22.2563 23.8522 22.3991 23.8043 22.5469 23.7937L24.2475 23.6756C24.5813 23.655 24.8963 23.8256 25.065 24.1106C25.1467 24.2525 25.1872 24.4144 25.1819 24.578C25.1766 24.7417 25.1257 24.9006 25.035 25.0369L24.0844 26.4506C24.0042 26.5692 23.8961 26.6663 23.7695 26.7334C23.643 26.8004 23.5019 26.8353 23.3588 26.835Z" fill="white"/>
</svg>
