<svg width="21" height="26" viewBox="0 0 21 26" fill="none" xmlns="http://www.w3.org/2000/svg">
<path fill-rule="evenodd" clip-rule="evenodd" d="M10.8673 2.48516H20.8673V5.18956H10.8673V2.48516ZM10.8673 11.9506H20.8673V14.655H10.8673V11.9506ZM0.867348 18.7116H7.11735V25.4726H0.867348V18.7116ZM2.74235 20.7399V23.4443H5.24235V20.7399H2.74235ZM10.8673 21.416H20.8673V24.1204H10.8673V21.416ZM6.98938 0L8.47555 1.23668L4.02051 7.50174L0 3.69616L1.2347 2.16971L3.75235 4.55132L6.98938 0ZM6.98938 9.46541L8.47555 10.7021L4.02051 16.9672L0 13.1616L1.2347 11.6351L3.75235 14.0167L6.98938 9.46541Z" fill="white"/>
</svg>
