<svg width="30" height="30" viewBox="0 0 30 30" fill="none" xmlns="http://www.w3.org/2000/svg">
<path d="M25.3125 13.5938V27.6562H17.3438L16.4062 28.5938H13.5938L12.6562 27.6562H4.6875V13.5938H25.3125Z" fill="#274C77"/>
<path d="M11.0578 11.0391C10.5281 10.8703 9.96094 10.7812 9.375 10.7812V22.9688C12.4828 22.9688 15 25.4859 15 28.5938C15 25.4859 17.5172 22.9688 20.625 22.9688V10.7812C20.0391 10.7812 19.4719 10.8703 18.9422 11.0391C18.6047 11.3672 18.225 11.6578 17.8125 11.8969V12.6562C18.0703 12.6562 18.2812 12.8672 18.2812 13.125V14.0625C18.2812 14.3203 18.0703 14.5312 17.8125 14.5312H12.1875C11.9297 14.5312 11.7188 14.3203 11.7188 14.0625V13.125C11.7188 12.8672 11.9297 12.6562 12.1875 12.6562V11.8969C11.775 11.6578 11.4 11.3719 11.0625 11.0391" fill="#A3CEF1"/>
<path d="M17.8125 14.5312C17.8125 16.0828 16.5516 17.3438 15 17.3438C13.4484 17.3438 12.1875 16.0828 12.1875 14.5312" fill="white"/>
<path d="M20.625 7.03125C20.625 3.92344 18.1078 1.40625 15 1.40625C11.8922 1.40625 9.375 3.92344 9.375 7.03125C9.375 9.1125 10.5094 10.9266 12.1875 11.8969V12.6562H17.8125V11.8969C19.4906 10.9219 20.625 9.1125 20.625 7.03125Z" fill="#F5DD90"/>
<path d="M17.8125 12.6562H12.1875C11.9286 12.6562 11.7188 12.8661 11.7188 13.125V14.0625C11.7188 14.3214 11.9286 14.5312 12.1875 14.5312H17.8125C18.0714 14.5312 18.2812 14.3214 18.2812 14.0625V13.125C18.2812 12.8661 18.0714 12.6562 17.8125 12.6562Z" fill="#274C77"/>
<path d="M18.2484 8.93906C18.4078 8.6625 18.6797 8.49844 18.9703 8.47031C19.1297 8.02031 19.2188 7.5375 19.2188 7.03125C19.2188 6.525 19.1297 6.04219 18.9703 5.59219C18.6797 5.56406 18.4031 5.4 18.2484 5.12344C18.0891 4.84688 18.0891 4.51875 18.2109 4.24688C17.5922 3.51094 16.7391 2.99062 15.7641 2.8125C15.5953 3.05625 15.3141 3.21563 15 3.21563C14.6859 3.21563 14.4047 3.05625 14.2359 2.8125C13.2609 2.99531 12.4078 3.51563 11.7891 4.24688C11.9109 4.51875 11.9062 4.84219 11.7516 5.12344C11.5922 5.4 11.3203 5.56406 11.0297 5.59219C10.8703 6.04219 10.7812 6.525 10.7812 7.03125C10.7812 7.5375 10.8703 8.02031 11.0297 8.47031C11.3203 8.49844 11.5969 8.6625 11.7516 8.93906C11.9109 9.21562 11.9109 9.54375 11.7891 9.81563C12.4078 10.5516 13.2609 11.0719 14.2359 11.25C14.4047 11.0063 14.6859 10.8469 15 10.8469C15.3141 10.8469 15.5953 11.0063 15.7641 11.25C16.7391 11.0672 17.5922 10.5469 18.2109 9.81563C18.0891 9.54375 18.0938 9.22031 18.2484 8.93906Z" fill="#A3CEF1"/>
<path d="M15 9.375C16.2944 9.375 17.3438 8.32567 17.3438 7.03125C17.3438 5.73683 16.2944 4.6875 15 4.6875C13.7056 4.6875 12.6562 5.73683 12.6562 7.03125C12.6562 8.32567 13.7056 9.375 15 9.375Z" fill="#FFBC0A"/>
<path d="M15.4688 16.875H14.5312V28.5938H15.4688V16.875Z" fill="white"/>
<path d="M15 28.5938C15 25.4859 12.4828 22.9688 9.375 22.9688V11.25L6.5625 12.1875V24.8438C6.5625 24.8438 12.2578 23.4375 15 28.5938Z" fill="white"/>
<path d="M23.4375 24.8438V12.1875L20.625 11.25V22.9688C17.5172 22.9688 15 25.4859 15 28.5938C17.7422 23.4375 23.4375 24.8438 23.4375 24.8438Z" fill="white"/>
</svg>
