<svg width="24" height="21" viewBox="0 0 24 21" fill="none" xmlns="http://www.w3.org/2000/svg">
<path d="M21.9646 0.0524996C22.1374 -0.00315536 22.3195 -0.0134629 22.4966 0.0223915C22.6736 0.0582459 22.8407 0.139279 22.9846 0.259083C23.1286 0.378886 23.2454 0.534174 23.3258 0.712666C23.4063 0.891157 23.4482 1.08796 23.4482 1.2875L23.4471 8.4275C23.4467 8.66629 23.3865 8.90025 23.2731 9.10326C23.1597 9.30626 22.9976 9.47029 22.8049 9.57703C22.6123 9.68377 22.3967 9.729 22.1822 9.70767C21.9677 9.68634 21.7627 9.59929 21.5903 9.45625L19.7391 7.9125L15.0267 14.8725C14.7521 15.2776 14.3524 15.5561 13.9041 15.6548C13.4558 15.7535 12.9905 15.6655 12.5971 15.4075L12.428 15.2825L8.66595 12.1487L3.68517 19.505C3.21166 20.205 2.34922 20.3888 1.6818 19.965L1.51946 19.8463C1.21852 19.5956 1.01036 19.2318 0.933986 18.8231C0.857612 18.4144 0.918266 17.9889 1.10458 17.6262L1.21169 17.4463L6.93541 8.99375C7.2099 8.58815 7.6098 8.30922 8.05839 8.21048C8.50698 8.11174 8.97265 8.20015 9.36605 8.45875L9.53403 8.58375L13.295 11.7162L17.2656 5.85375L15.4088 4.3075C15.2481 4.17309 15.1217 3.99467 15.0419 3.78973C14.9621 3.5848 14.9318 3.36039 14.9539 3.13853C14.9759 2.91667 15.0496 2.70497 15.1677 2.52422C15.2858 2.34347 15.4443 2.19986 15.6275 2.1075L15.782 2.045L21.9657 0.0512497L21.9646 0.0524996Z" fill="#444444"/>
</svg>
