<svg width="24" height="21" viewBox="0 0 24 21" fill="none" xmlns="http://www.w3.org/2000/svg">
<path d="M21.9646 0.0525072C22.1374 -0.00314773 22.3196 -0.0134553 22.4966 0.0223991C22.6736 0.0582535 22.8407 0.139287 22.9846 0.25909C23.1286 0.378894 23.2454 0.534182 23.3258 0.712673C23.4063 0.891165 23.4482 1.08796 23.4482 1.28751L23.4471 8.42751C23.4467 8.66629 23.3865 8.90026 23.2731 9.10326C23.1597 9.30627 22.9976 9.4703 22.8049 9.57704C22.6123 9.68377 22.3967 9.72901 22.1822 9.70768C21.9677 9.68635 21.7627 9.5993 21.5903 9.45626L19.7391 7.91251L15.0267 14.8725C14.7521 15.2776 14.3524 15.5561 13.9041 15.6548C13.4559 15.7535 12.9905 15.6655 12.5972 15.4075L12.428 15.2825L8.66596 12.1488L3.68518 19.505C3.21168 20.205 2.34923 20.3888 1.68182 19.965L1.51948 19.8463C1.21854 19.5956 1.01038 19.2318 0.934001 18.8231C0.857627 18.4144 0.918282 17.9889 1.1046 17.6263L1.2117 17.4463L6.93543 8.99376C7.20991 8.58815 7.60982 8.30922 8.0584 8.21049C8.50699 8.11175 8.97267 8.20016 9.36607 8.45876L9.53405 8.58376L13.295 11.7163L17.2657 5.85376L15.4088 4.30751C15.2481 4.1731 15.1217 3.99468 15.0419 3.78974C14.9622 3.58481 14.9318 3.3604 14.9539 3.13854C14.9759 2.91668 15.0496 2.70498 15.1677 2.52423C15.2858 2.34348 15.4443 2.19987 15.6276 2.10751L15.782 2.04501L21.9657 0.0512573L21.9646 0.0525072Z" fill="white"/>
</svg>
