<svg width="30" height="20" viewBox="0 0 30 20" fill="none" xmlns="http://www.w3.org/2000/svg">
<path fill-rule="evenodd" clip-rule="evenodd" d="M12 9.73585C12 7.94283 13.3425 6.49057 15 6.49057C16.6575 6.49057 18 7.94283 18 9.73585C18 11.5289 16.6575 12.9811 15 12.9811C13.3425 12.9811 12 11.5289 12 9.73585ZM24.5145 3.24528C26.958 3.24528 27 3.86835 27 5.93397L24.5145 3.24528ZM24.5145 16.2264L27 13.5377C27 16.1778 26.43 16.2264 24.5145 16.2264ZM3 13.5377L5.48552 16.2264C3.04502 16.2264 3 15.6098 3 13.5377ZM5.48552 3.24528L3 5.93397C3 3.29069 3.57602 3.24528 5.48552 3.24528ZM20.2725 3.24528L26.2725 9.73585L20.2725 16.2264H9.72748L3.72748 9.73585L9.72748 3.24528H20.2725ZM27 0H3C1.3425 0 0 1.45226 0 3.24528V16.2264C0 18.0194 1.3425 19.4717 3 19.4717H27C28.6575 19.4717 30 18.0194 30 16.2264V3.24528C30 1.45226 28.6575 0 27 0Z" fill="#444444"/>
</svg>
