<svg width="30" height="30" viewBox="0 0 30 30" fill="none" xmlns="http://www.w3.org/2000/svg">
<path d="M23.0399 12.72H16.2899C15.6899 12.72 15.5999 13.35 15.5999 13.41V23.67H23.6399V13.56C23.6999 12.9 23.2199 12.72 23.0399 12.72ZM19.0199 21.9C19.0199 22.23 18.7499 22.53 18.3899 22.53H17.7599C17.4299 22.53 17.1299 22.26 17.1299 21.9V21.27C17.1299 20.94 17.3999 20.64 17.7599 20.64H18.3899C18.7199 20.64 19.0199 20.91 19.0199 21.27V21.9ZM19.0199 18.75C19.0199 19.08 18.7499 19.38 18.3899 19.38H17.7599C17.4299 19.38 17.1299 19.11 17.1299 18.75V18.12C17.1299 17.79 17.3999 17.49 17.7599 17.49H18.3899C18.7199 17.49 19.0199 17.76 19.0199 18.12V18.75ZM19.0199 15.6C19.0199 15.93 18.7499 16.23 18.3899 16.23H17.7599C17.4299 16.23 17.1299 15.96 17.1299 15.6V14.97C17.1299 14.64 17.3999 14.34 17.7599 14.34H18.3899C18.7199 14.34 19.0199 14.61 19.0199 14.97V15.6ZM22.1099 21.9C22.1099 22.23 21.8399 22.53 21.4799 22.53H20.8499C20.5199 22.53 20.2199 22.26 20.2199 21.9V21.27C20.2199 20.94 20.4899 20.64 20.8499 20.64H21.4799C21.8099 20.64 22.1099 20.91 22.1099 21.27V21.9ZM22.1099 18.75C22.1099 19.08 21.8399 19.38 21.4799 19.38H20.8499C20.5199 19.38 20.2199 19.11 20.2199 18.75V18.12C20.2199 17.79 20.4899 17.49 20.8499 17.49H21.4799C21.8099 17.49 22.1099 17.76 22.1099 18.12V18.75ZM22.1099 15.6C22.1099 15.93 21.8399 16.23 21.4799 16.23H20.8499C20.5199 16.23 20.2199 15.96 20.2199 15.6V14.97C20.2199 14.64 20.4899 14.34 20.8499 14.34H21.4799C21.8099 14.34 22.1099 14.61 22.1099 14.97V15.6Z" fill="white"/>
<path d="M16.8 5.76001H6.38995C5.78995 5.76001 5.69995 6.39001 5.69995 6.45001V23.64H13.74V11.58C13.74 11.58 13.74 10.83 14.43 10.83H16.71C16.71 10.83 16.77 10.83 16.83 10.83C17.1 10.8 17.43 10.68 17.43 10.2V6.60001C17.46 5.94001 17.01 5.76001 16.8 5.76001ZM9.11995 21.63C9.11995 21.96 8.84995 22.26 8.48995 22.26H7.85995C7.52995 22.26 7.22995 21.99 7.22995 21.63V21C7.22995 20.67 7.49995 20.37 7.85995 20.37H8.48995C8.81995 20.37 9.11995 20.64 9.11995 21V21.63ZM9.11995 18.45C9.11995 18.78 8.84995 19.08 8.48995 19.08H7.85995C7.52995 19.08 7.22995 18.81 7.22995 18.45V17.82C7.22995 17.49 7.49995 17.19 7.85995 17.19H8.48995C8.81995 17.19 9.11995 17.46 9.11995 17.82V18.45ZM9.11995 15.27C9.11995 15.6 8.84995 15.9 8.48995 15.9H7.85995C7.52995 15.9 7.22995 15.63 7.22995 15.27V14.64C7.22995 14.31 7.49995 14.01 7.85995 14.01H8.48995C8.81995 14.01 9.11995 14.28 9.11995 14.64V15.27ZM9.11995 12.09C9.11995 12.42 8.84995 12.72 8.48995 12.72H7.85995C7.52995 12.72 7.22995 12.45 7.22995 12.09V11.46C7.22995 11.13 7.49995 10.83 7.85995 10.83H8.48995C8.81995 10.83 9.11995 11.1 9.11995 11.46V12.09ZM9.11995 8.94001C9.11995 9.27001 8.84995 9.57001 8.48995 9.57001H7.85995C7.52995 9.57001 7.22995 9.30001 7.22995 8.94001V8.31001C7.22995 7.98001 7.49995 7.68001 7.85995 7.68001H8.48995C8.81995 7.68001 9.11995 7.95001 9.11995 8.31001V8.94001ZM12.51 21.63C12.51 21.96 12.24 22.26 11.88 22.26H11.25C10.92 22.26 10.62 21.99 10.62 21.63V21C10.62 20.67 10.89 20.37 11.25 20.37H11.88C12.21 20.37 12.51 20.64 12.51 21V21.63ZM12.51 18.45C12.51 18.78 12.24 19.08 11.88 19.08H11.25C10.92 19.08 10.62 18.81 10.62 18.45V17.82C10.62 17.49 10.89 17.19 11.25 17.19H11.88C12.21 17.19 12.51 17.46 12.51 17.82V18.45ZM12.51 15.27C12.51 15.6 12.24 15.9 11.88 15.9H11.25C10.92 15.9 10.62 15.63 10.62 15.27V14.64C10.62 14.31 10.89 14.01 11.25 14.01H11.88C12.21 14.01 12.51 14.28 12.51 14.64V15.27ZM12.51 12.09C12.51 12.42 12.24 12.72 11.88 12.72H11.25C10.92 12.72 10.62 12.45 10.62 12.09V11.46C10.62 11.13 10.89 10.83 11.25 10.83H11.88C12.21 10.83 12.51 11.1 12.51 11.46V12.09ZM12.51 8.94001C12.51 9.27001 12.24 9.57001 11.88 9.57001H11.25C10.92 9.57001 10.62 9.30001 10.62 8.94001V8.31001C10.62 7.98001 10.89 7.68001 11.25 7.68001H11.88C12.21 7.68001 12.51 7.95001 12.51 8.31001V8.94001ZM15.93 8.94001C15.93 9.27001 15.63 9.57001 15.3 9.57001H14.67C14.34 9.57001 14.04 9.30001 14.04 8.94001V8.31001C14.04 7.98001 14.31 7.68001 14.67 7.68001H15.3C15.63 7.68001 15.93 7.95001 15.93 8.31001V8.94001Z" fill="white"/>
<path d="M23.85 9.15001C23.67 9.00001 23.37 9.03001 23.22 9.21001L22.98 9.51001C22.77 7.68001 21.42 6.93001 20.4 6.69001L20.64 6.54001C20.85 6.42001 20.91 6.12001 20.79 5.91001C20.67 5.70001 20.37 5.64001 20.16 5.76001L18.96 6.54001C18.84 6.60001 18.78 6.72001 18.75 6.84001C18.72 6.96001 18.75 7.08001 18.84 7.20001L19.83 8.46001C19.92 8.58001 20.04 8.64001 20.19 8.64001C20.28 8.64001 20.4 8.61001 20.46 8.55001C20.67 8.40001 20.7 8.10001 20.55 7.92001L20.31 7.59001C20.94 7.74001 21.93 8.25001 22.08 9.63001L21.87 9.39001C21.69 9.21001 21.42 9.21001 21.24 9.39001C21.06 9.57001 21.06 9.84001 21.24 10.02L22.23 11.04C22.32 11.13 22.44 11.16 22.56 11.16C22.56 11.16 22.56 11.16 22.59 11.16C22.71 11.16 22.83 11.1 22.92 11.01L23.94 9.75001C24.06 9.60001 24.03 9.30001 23.85 9.15001Z" fill="white"/>
</svg>
