<svg width="31" height="30" viewBox="0 0 31 30" fill="none" xmlns="http://www.w3.org/2000/svg">
<path d="M6.98787 18.911C9.87915 18.911 12.0385 17.8047 12.0385 16.816V15.1872C10.9206 15.991 9.11342 16.4972 6.98787 16.4972C4.86233 16.4972 3.05387 15.991 1.93721 15.1872V16.816C1.93721 17.8047 4.09659 18.911 6.98787 18.911ZM6.98787 22.5023C9.87915 22.5023 12.0385 21.396 12.0385 20.4073V18.7985C10.9206 19.6023 9.11342 20.1085 6.98787 20.1085C4.86233 20.1085 3.05387 19.6023 1.93721 18.7985V20.4073C1.93721 21.396 4.09659 22.5023 6.98787 22.5023ZM12.0385 24.0585H12.041C12.041 24.0523 12.0385 24.0448 12.0385 24.0398V22.3898C10.9206 23.1947 9.11339 23.6998 6.98784 23.6998C4.8623 23.6998 3.05384 23.1948 1.93718 22.3898V24.0585C1.93718 25.0472 4.09656 26.1535 6.98784 26.1535C9.87912 26.1535 12.0385 25.0472 12.0385 24.0585ZM6.98787 11.1098C4.09659 11.1098 1.93721 12.216 1.93721 13.2047C1.93721 14.1947 4.09659 15.2997 6.98787 15.2997C9.87915 15.2997 12.0385 14.1947 12.0385 13.2047C12.0385 12.216 9.87915 11.1098 6.98787 11.1098ZM6.98787 9.91351C10.5509 9.91351 13.2391 11.3285 13.2391 13.2047V24.0398C13.2391 24.0448 13.2366 24.0523 13.2366 24.0585H13.2391C13.2391 25.936 10.5509 27.351 6.98787 27.351C3.58776 27.351 0.991006 26.0623 0.759162 24.3122C0.746619 24.2635 0.736603 24.2123 0.736603 24.1585V13.2047C0.736603 11.3285 3.42359 9.91351 6.98787 9.91351ZM28.634 3.75C29.792 3.75 30.7344 4.68999 30.7344 5.84499V25.2563C30.7344 26.4113 29.792 27.3512 28.634 27.3512H16.748C15.59 27.3512 14.6476 26.4113 14.6476 25.2563V5.84499C14.6476 4.68999 15.59 3.75 16.748 3.75H28.634ZM29.5338 25.2563V5.84499C29.5338 5.34999 29.1303 4.94625 28.634 4.94625H16.748C16.2517 4.94625 15.8481 5.34999 15.8481 5.84499V25.2563C15.8481 25.7513 16.2517 26.1538 16.748 26.1538H28.634C29.1303 26.1538 29.5338 25.7513 29.5338 25.2563ZM27.1878 7.83712C27.6829 7.83712 28.0877 8.23963 28.0877 8.73463V11.1059C28.0877 11.6009 27.6829 12.0034 27.1878 12.0034H18.1944C17.6981 12.0034 17.2933 11.6009 17.2933 11.1059V8.73463C17.2933 8.23963 17.6981 7.83712 18.1944 7.83712H27.1878ZM18.4939 10.8059H26.8883V9.0334H18.4939V10.8059ZM18.8866 14.1693C19.4342 14.1693 19.8792 14.6118 19.8792 15.1593C19.8792 15.7055 19.4342 16.1493 18.8866 16.1493C18.3389 16.1493 17.894 15.7055 17.894 15.1593C17.894 14.6118 18.3389 14.1693 18.8866 14.1693ZM22.691 14.1693C23.2387 14.1693 23.6836 14.6118 23.6836 15.1593C23.6836 15.7055 23.2387 16.1493 22.691 16.1493C22.1433 16.1493 21.6984 15.7055 21.6984 15.1593C21.6984 14.6118 22.1433 14.1693 22.691 14.1693ZM26.4949 14.0869C27.0426 14.0869 27.4875 14.5294 27.4875 15.0769C27.4875 15.6231 27.0426 16.0669 26.4949 16.0669C25.9472 16.0669 25.5023 15.6231 25.5023 15.0769C25.5023 14.5294 25.9472 14.0869 26.4949 14.0869ZM18.8866 17.7166C19.4342 17.7166 19.8792 18.1591 19.8792 18.7066C19.8792 19.2529 19.4342 19.6954 18.8866 19.6954C18.3389 19.6954 17.894 19.2529 17.894 18.7066C17.894 18.1591 18.3389 17.7166 18.8866 17.7166ZM22.691 17.7166C23.2387 17.7166 23.6836 18.1591 23.6836 18.7066C23.6836 19.2529 23.2387 19.6954 22.691 19.6954C22.1433 19.6954 21.6984 19.2529 21.6984 18.7066C21.6984 18.1591 22.1433 17.7166 22.691 17.7166ZM26.4949 17.7166C27.0426 17.7166 27.4875 18.1591 27.4875 18.7066C27.4875 19.2529 27.0426 19.6954 26.4949 19.6954C25.9472 19.6954 25.5023 19.2529 25.5023 18.7066C25.5023 18.1591 25.9472 17.7166 26.4949 17.7166ZM18.8866 21.3458C19.4342 21.3458 19.8792 21.7883 19.8792 22.3358C19.8792 22.882 19.4342 23.3245 18.8866 23.3245C18.3389 23.3245 17.894 22.882 17.894 22.3358C17.894 21.7883 18.3389 21.3458 18.8866 21.3458ZM22.691 21.3458C23.2387 21.3458 23.6836 21.7883 23.6836 22.3358C23.6836 22.882 23.2387 23.3245 22.691 23.3245C22.1433 23.3245 21.6984 22.882 21.6984 22.3358C21.6984 21.7883 22.1433 21.3458 22.691 21.3458ZM26.4949 21.3458C27.0426 21.3458 27.4875 21.7883 27.4875 22.3358C27.4875 22.882 27.0426 23.3245 26.4949 23.3245C25.9472 23.3245 25.5023 22.882 25.5023 22.3358C25.5023 21.7883 25.9472 21.3458 26.4949 21.3458Z" fill="white"/>
</svg>
