<svg width="31" height="30" viewBox="0 0 31 30" fill="none" xmlns="http://www.w3.org/2000/svg">
<path d="M14.4542 2.37702C14.1396 2.06313 13.6295 2.06304 13.3148 2.37678C13.0001 2.69053 13 3.19933 13.3146 3.51321L15.1494 5.34398C8.94766 5.3849 3.93286 10.4119 3.93286 16.6071C3.93286 22.8277 8.98883 27.8705 15.2257 27.8705C21.366 27.8705 26.3614 22.983 26.5148 16.8953C26.526 16.4517 26.1745 16.083 25.7297 16.0717C25.2848 16.0606 24.9152 16.4113 24.904 16.855C24.7724 22.0731 20.4896 26.2634 15.2257 26.2634C9.87874 26.2634 5.5442 21.9402 5.5442 16.6071C5.5442 11.2909 9.85157 6.97803 15.1753 6.951L13.3147 8.80678C13.0001 9.12059 13.0001 9.62939 13.3147 9.9432C13.6294 10.257 14.1394 10.257 14.4541 9.9432L17.6767 6.72892C17.9914 6.41515 17.9914 5.90645 17.6769 5.59261L14.4542 2.37702Z" fill="#444444"/>
<path d="M19.8253 13.0925C20.1399 13.4065 20.1399 13.9152 19.8251 14.229L14.1855 19.8526C13.871 20.1662 13.3612 20.1664 13.0465 19.8529L10.6273 17.4428C10.3125 17.1291 10.3122 16.6203 10.6266 16.3064C10.9411 15.9924 11.4512 15.992 11.7661 16.3056L13.6156 18.1483L18.6859 13.0924C19.0005 12.7786 19.5107 12.7787 19.8253 13.0925Z" fill="#444444"/>
</svg>
