<svg width="31" height="30" viewBox="0 0 31 30" fill="none" xmlns="http://www.w3.org/2000/svg">
<path d="M14.4541 2.37702C14.1396 2.06313 13.6294 2.06304 13.3148 2.37678C13 2.69053 12.9999 3.19933 13.3146 3.51321L15.1494 5.34398C8.9476 5.3849 3.9328 10.4119 3.9328 16.6071C3.9328 22.8277 8.98877 27.8705 15.2256 27.8705C21.3659 27.8705 26.3614 22.983 26.5148 16.8953C26.5259 16.4517 26.1745 16.083 25.7296 16.0717C25.2848 16.0606 24.9151 16.4113 24.904 16.855C24.7724 22.0731 20.4895 26.2634 15.2256 26.2634C9.87868 26.2634 5.54414 21.9402 5.54414 16.6071C5.54414 11.2909 9.85151 6.97803 15.1752 6.951L13.3147 8.80678C13 9.12059 13 9.62939 13.3147 9.9432C13.6293 10.257 14.1394 10.257 14.454 9.9432L17.6767 6.72892C17.9913 6.41515 17.9913 5.90645 17.6768 5.59261L14.4541 2.37702Z" fill="white"/>
<path d="M19.8254 13.0925C20.1399 13.4065 20.1399 13.9152 19.8252 14.229L14.1856 19.8526C13.8711 20.1662 13.3612 20.1664 13.0466 19.8529L10.6274 17.4428C10.3125 17.1291 10.3122 16.6203 10.6267 16.3064C10.9411 15.9924 11.4513 15.992 11.7661 16.3056L13.6156 18.1483L18.686 13.0924C19.0006 12.7786 19.5108 12.7787 19.8254 13.0925Z" fill="white"/>
</svg>
