<svg width="35" height="40" viewBox="0 0 35 40" fill="none" xmlns="http://www.w3.org/2000/svg">
<path d="M9.33333 18.6667H8V21.3333H9.33333V18.6667ZM25.3333 21.3333H26.6667V18.6667H25.3333V21.3333ZM20 26.6667H18.6667V29.3333H20V26.6667ZM25.3333 29.3333H26.6667V26.6667H25.3333V29.3333ZM9.33333 10.6667H8V13.3333H9.33333V10.6667ZM14.6667 13.3333H16V10.6667H14.6667V13.3333ZM25.3333 1.33333L26.2763 0.390525L25.8856 0H25.3333V1.33333ZM33.3333 9.33333H34.6667V8.78104L34.2763 8.39053L33.3333 9.33333ZM9.33333 21.3333H25.3333V18.6667H9.33333V21.3333ZM20 29.3333H25.3333V26.6667H20V29.3333ZM9.33333 13.3333H14.6667V10.6667H9.33333V13.3333ZM30.6667 37.3333H4V40H30.6667V37.3333ZM2.66667 36V4H0V36H2.66667ZM4 2.66667H25.3333V0H4V2.66667ZM32 9.33333V36H34.6667V9.33333H32ZM24.3904 2.27614L32.3904 10.2761L34.2763 8.39053L26.2763 0.390525L24.3904 2.27614ZM4 37.3333C3.26363 37.3333 2.66667 36.7363 2.66667 36H0C0 38.2091 1.79085 40 4 40V37.3333ZM30.6667 40C32.8757 40 34.6667 38.2091 34.6667 36H32C32 36.7363 31.4029 37.3333 30.6667 37.3333V40ZM2.66667 4C2.66667 3.26363 3.26363 2.66667 4 2.66667V0C1.79085 0 0 1.79086 0 4H2.66667Z" fill="black"/>
</svg>
