<svg width="40" height="40" viewBox="0 0 40 40" fill="none" xmlns="http://www.w3.org/2000/svg">
<path d="M12 18.6667H10.6666V21.3333H12V18.6667ZM28 21.3333H29.3333V18.6667H28V21.3333ZM22.6666 26.6667H21.3333V29.3333H22.6666V26.6667ZM28 29.3333H29.3333V26.6667H28V29.3333ZM12 10.6667H10.6666V13.3333H12V10.6667ZM17.3333 13.3333H18.6666V10.6667H17.3333V13.3333ZM28 1.33333L28.9429 0.390525L28.5522 0H28V1.33333ZM36 9.33333H37.3333V8.78104L36.9429 8.39053L36 9.33333ZM12 21.3333H28V18.6667H12V21.3333ZM22.6666 29.3333H28V26.6667H22.6666V29.3333ZM12 13.3333H17.3333V10.6667H12V13.3333ZM33.3333 37.3333H6.66663V40H33.3333V37.3333ZM5.33329 36V4H2.66663V36H5.33329ZM6.66663 2.66667H28V0H6.66663V2.66667ZM34.6666 9.33333V36H37.3333V9.33333H34.6666ZM27.057 2.27614L35.057 10.2761L36.9429 8.39053L28.9429 0.390525L27.057 2.27614ZM6.66663 37.3333C5.93025 37.3333 5.33329 36.7363 5.33329 36H2.66663C2.66663 38.2091 4.45748 40 6.66663 40V37.3333ZM33.3333 40C35.5424 40 37.3333 38.2091 37.3333 36H34.6666C34.6666 36.7363 34.0696 37.3333 33.3333 37.3333V40ZM5.33329 4C5.33329 3.26363 5.93025 2.66667 6.66663 2.66667V0C4.45748 0 2.66663 1.79086 2.66663 4H5.33329Z" fill="white"/>
</svg>
