<svg width="28" height="28" viewBox="0 0 28 28" fill="none" xmlns="http://www.w3.org/2000/svg">
<path d="M17.75 17.75L25.25 25.25M25.25 17.75L17.75 25.25M11.5 25.25V17.3284C11.5 17.0227 11.5 16.8699 11.4655 16.726C11.4348 16.5984 11.3843 16.4765 11.3158 16.3646C11.2385 16.2385 11.1304 16.1304 10.9142 15.9142L3.33579 8.33579C3.1196 8.1196 3.0115 8.0115 2.9342 7.88535C2.86566 7.77351 2.81516 7.65159 2.78454 7.52404C2.75 7.38018 2.75 7.22731 2.75 6.92157V4.75C2.75 4.04994 2.75 3.6999 2.88624 3.43251C3.00609 3.19731 3.19731 3.00609 3.43251 2.88624C3.6999 2.75 4.04994 2.75 4.75 2.75H23.25C23.9501 2.75 24.3001 2.75 24.5675 2.88624C24.8028 3.00609 24.9939 3.19731 25.1138 3.43251C25.25 3.6999 25.25 4.04994 25.25 4.75V6.92157C25.25 7.22731 25.25 7.38018 25.2155 7.52404C25.1849 7.65159 25.1344 7.77351 25.0658 7.88535C24.9885 8.0115 24.8804 8.1196 24.6643 8.33579L20.25 12.75" stroke="white" stroke-width="5" stroke-linecap="round" stroke-linejoin="round"/>
</svg>
