<svg width="18" height="18" viewBox="0 0 18 18" fill="none" xmlns="http://www.w3.org/2000/svg">
<path d="M17.7469 14.5694C17.755 14.3094 17.7431 14.0481 17.7388 13.7881C17.7325 13.5219 17.7231 13.2562 17.7156 12.99C17.7 12.4531 17.6769 11.9162 17.6612 11.3794C17.6287 10.29 17.6362 9.19998 17.5869 8.11061C17.5544 7.38436 17.5544 6.66123 17.5675 5.93623C17.5819 5.16936 17.6375 4.40373 17.6806 3.63936C17.6975 3.33936 17.4169 3.08811 17.1294 3.08811C17.0556 3.08811 16.9869 3.10436 16.9244 3.12998C16.9175 3.11498 16.9169 3.09748 16.9087 3.08311C16.8306 2.95061 16.7119 2.88498 16.5737 2.85498C16.5737 2.84998 16.5763 2.84623 16.5763 2.84123C16.5656 2.57748 16.5763 2.31373 16.5856 2.04998C16.595 1.74998 16.6038 1.44936 16.6075 1.14936C16.6125 0.860605 16.3631 0.618106 16.0769 0.618106C15.7881 0.618106 15.545 0.85998 15.545 1.14936C15.5475 1.70311 15.5675 2.26123 15.5312 2.81436C15.3438 2.81436 15.1556 2.81436 14.9675 2.81623C14.7681 2.81748 14.5681 2.81748 14.3687 2.81748C14.31 2.31748 14.3169 1.81311 14.3481 1.31123C14.3662 1.01998 14.0906 0.776855 13.8137 0.776855C13.5119 0.776855 13.2925 1.02123 13.2781 1.31123C13.2544 1.81623 13.2931 2.31686 13.3237 2.81998C12.85 2.82311 12.3762 2.82061 11.9025 2.81936C11.9244 2.76186 11.9388 2.70123 11.9344 2.63686C11.9019 2.22623 11.9069 1.81186 11.8813 1.40061C11.8631 1.10686 11.6488 0.859981 11.3406 0.859981C11.0638 0.859981 10.7781 1.10561 10.8013 1.40061C10.8306 1.81248 10.875 2.22436 10.8825 2.63686C10.8837 2.70123 10.8994 2.76186 10.9212 2.81873C10.7006 2.81811 10.48 2.81873 10.2594 2.81873C10.0519 2.81873 9.84438 2.81061 9.6375 2.80936C9.63562 2.77061 9.63813 2.73311 9.63125 2.69186C9.5925 2.32373 9.57875 1.95123 9.545 1.58311C9.53187 1.42873 9.49312 1.29748 9.38 1.18436C9.275 1.07936 9.13062 1.01936 8.9825 1.01936C8.83438 1.01936 8.69 1.07936 8.58375 1.18436C8.48875 1.28061 8.40562 1.44186 8.42 1.58311C8.44187 1.80373 8.46688 2.02248 8.49125 2.24311C8.51125 2.42686 8.52938 2.61061 8.555 2.79373C8.09438 2.78623 7.63375 2.78811 7.17312 2.77248C7.125 2.77061 7.07625 2.77123 7.02813 2.76936C7.02313 2.32498 7.02313 1.88061 7 1.43748C6.98438 1.13623 6.76063 0.883731 6.4475 0.883731C6.16125 0.883731 5.87437 1.13561 5.895 1.43748C5.92437 1.87311 5.94813 2.30936 5.95938 2.74623C5.8425 2.74498 5.72625 2.73873 5.60938 2.73873C5.59125 2.73873 5.5725 2.73873 5.55438 2.73873C5.22125 2.73873 4.88875 2.74561 4.55625 2.75123C4.57 2.24748 4.54688 1.74061 4.5275 1.23811C4.51562 0.936856 4.28438 0.684355 3.97375 0.684355C3.6825 0.684355 3.40563 0.936231 3.42 1.23811C3.44375 1.74623 3.47 2.25311 3.49375 2.76061C3.245 2.76123 2.99625 2.76123 2.74813 2.76311C2.63375 2.76498 2.52063 2.76561 2.4075 2.76686C2.415 2.21748 2.45 1.66811 2.45875 1.11811C2.46375 0.821856 2.20687 0.57373 1.91312 0.57373C1.61562 0.57373 1.37 0.821856 1.36875 1.11811C1.36563 1.68248 1.36625 2.24561 1.345 2.80873C1.33875 2.80936 1.33125 2.80936 1.325 2.81061C1.23563 2.83561 1.1575 2.88123 1.0925 2.94623C1.02375 3.01498 0.98625 3.10123 0.963125 3.19186C0.709375 3.24811 0.52375 3.46561 0.515625 3.73248C0.481875 4.81123 0.465625 5.89061 0.45375 6.97061C0.3675 7.05936 0.3125 7.17811 0.3125 7.31498C0.3125 7.43498 0.36375 7.54811 0.44 7.63998C0.4325 8.12123 0.4225 8.60186 0.408125 9.08373C0.39375 9.62936 0.403125 10.1756 0.380625 10.7225C0.36625 11.0344 0.346875 11.3462 0.3375 11.6581C0.328125 11.9506 0.324375 12.2431 0.318125 12.5356C0.30625 13.1294 0.30125 13.7225 0.29875 14.315C0.29875 14.3381 0.309375 14.3581 0.311875 14.3806C0.275625 14.4512 0.25 14.5287 0.25 14.6125C0.25 14.8981 0.489375 15.1412 0.77625 15.1387C1.1 15.1369 1.425 15.1294 1.74938 15.1231C1.645 15.2337 1.55875 15.4056 1.57437 15.56C1.60062 15.8344 1.62375 16.1087 1.60812 16.385C1.60437 16.4512 1.59875 16.5175 1.5975 16.5837C1.595 16.7381 1.63625 16.8569 1.69375 16.9956C1.785 17.2112 2.01375 17.3244 2.22688 17.3787C2.35688 17.4112 2.5 17.4137 2.635 17.4219C2.7025 17.4269 2.77125 17.4269 2.84 17.4269C3.00125 17.4281 3.16375 17.4269 3.325 17.4231C3.62812 17.4181 3.93062 17.3931 4.2325 17.3725C4.79562 17.3337 5.35687 17.3087 5.92312 17.305C6.5275 17.3012 7.13188 17.2931 7.73625 17.2906C8.3275 17.2869 8.91937 17.3025 9.51062 17.305C10.0931 17.3062 10.6775 17.2819 11.2612 17.2819C12.3956 17.2819 13.5306 17.2831 14.6637 17.3106C14.8481 17.3156 15.0312 17.3212 15.2137 17.3312C15.2919 17.335 15.37 17.3387 15.4475 17.3419C15.5319 17.3444 15.6256 17.3337 15.7037 17.3056C15.875 17.2456 15.9806 17.1469 16.0781 16.9987C16.1819 16.8425 16.1875 16.6231 16.1987 16.4425C16.2037 16.3581 16.1962 16.2737 16.1938 16.1906C16.1856 15.9825 16.1575 15.7737 16.1287 15.5669C16.11 15.5006 16.0687 15.4469 16.0275 15.3937C16.1175 15.3956 16.2081 15.4 16.2981 15.4025C16.6063 15.4106 16.9144 15.4312 17.2212 15.4181C17.5044 15.4062 17.7412 15.1919 17.7412 14.8994C17.7412 14.8462 17.7256 14.7956 17.7087 14.745C17.7294 14.6894 17.745 14.6312 17.7469 14.5694ZM1.32625 14.0962C1.32562 13.9019 1.32625 13.7069 1.33312 13.5125C1.3425 13.2381 1.345 12.965 1.34375 12.69C1.34312 12.5769 1.34938 12.4637 1.35 12.3506C1.7475 12.3706 2.145 12.3887 2.5425 12.4056C2.94625 12.4225 3.35 12.4187 3.75312 12.4244C3.75312 12.4731 3.75312 12.5225 3.7525 12.5712C3.74813 13.0906 3.76063 13.6119 3.74437 14.1312C2.93875 14.1194 2.1325 14.1062 1.32625 14.0962ZM2.51312 7.75311C2.93625 7.74623 3.36063 7.75123 3.78438 7.75498C3.775 8.19998 3.76688 8.64436 3.76375 9.08936C3.35438 9.09186 2.94438 9.09436 2.535 9.09186C2.16688 9.08873 1.79937 9.09436 1.4325 9.10436C1.43937 8.66811 1.44563 8.23186 1.4525 7.79498C1.80562 7.77873 2.15875 7.75873 2.51312 7.75311ZM16.5969 8.01123C16.6063 8.25248 16.6131 8.49311 16.6219 8.73436C16.6262 8.86686 16.6244 8.99873 16.6269 9.13123C16.5825 9.12873 16.5387 9.12373 16.4937 9.13123C16.26 9.13748 16.0206 9.12061 15.7881 9.11186C15.535 9.10373 15.2837 9.09498 15.0319 9.09498C14.7181 9.09498 14.405 9.08811 14.0912 9.08311C14.1163 8.76311 14.1456 8.44311 14.1688 8.12186C14.1744 8.04248 14.1781 7.96248 14.1831 7.88311C14.5269 7.89748 14.8706 7.90998 15.2137 7.92998C15.6375 7.95311 16.0575 8.01311 16.4812 8.03248C16.5219 8.03436 16.5581 8.01936 16.5969 8.01123ZM13.0206 11.5887C12.7812 11.5875 12.5425 11.5894 12.3031 11.5819C11.805 11.5681 11.3063 11.5537 10.8075 11.5462C10.8088 11.4975 10.8075 11.4487 10.8094 11.4C10.8244 10.9669 10.8525 10.5344 10.8806 10.1019C10.9075 10.1019 10.9344 10.1025 10.9619 10.1025C11.2469 10.1037 11.5337 10.1037 11.82 10.1037C12.2256 10.1031 12.6312 10.1037 13.0375 10.1081C13.0344 10.3556 13.0256 10.6025 13.0256 10.85C13.025 11.0962 13.0225 11.3425 13.0206 11.5887ZM1.3725 11.1162C1.38813 10.7987 1.39437 10.4812 1.40375 10.1644C2.18813 10.1181 2.97312 10.095 3.75937 10.0831C3.75937 10.395 3.76062 10.7075 3.75812 11.0187C3.75688 11.1637 3.75688 11.3087 3.75688 11.4537C3.39438 11.4456 3.03188 11.4381 2.67063 11.4175C2.39 11.4019 2.10938 11.3719 1.82938 11.3512C1.67562 11.34 1.52313 11.3294 1.37 11.3194C1.37188 11.2519 1.36937 11.1844 1.3725 11.1162ZM4.77625 11.3212C4.77562 10.9044 4.77563 10.4875 4.77688 10.0706C5.37813 10.0681 5.97937 10.0675 6.58062 10.0694C6.57687 10.3569 6.5725 10.6444 6.57062 10.9325C6.56875 11.13 6.5675 11.3275 6.56625 11.525C5.97 11.5181 5.37313 11.505 4.7775 11.4837C4.77688 11.4294 4.77625 11.375 4.77625 11.3212ZM7.54688 11.3331C7.54938 10.9125 7.56437 10.4919 7.58125 10.0712C7.61687 10.0712 7.6525 10.0712 7.6875 10.0712C8.425 10.0712 9.1625 10.0819 9.9 10.0906C9.89 10.3019 9.88188 10.5131 9.87062 10.7237C9.85625 10.9956 9.84125 11.2675 9.82875 11.54C9.46875 11.5387 9.10812 11.5356 8.74813 11.5356C8.35437 11.5369 7.96062 11.5369 7.56812 11.5344C7.56062 11.5344 7.55313 11.5344 7.54563 11.5344C7.54688 11.4675 7.54625 11.4 7.54688 11.3331ZM13.06 9.07123C12.9187 9.06998 12.7781 9.06748 12.6369 9.06748C12.0731 9.06748 11.5094 9.07623 10.945 9.08186C10.9656 8.78498 10.9875 8.48811 11.005 8.19123C11.0131 8.05623 11.0144 7.92186 11.0187 7.78686C11.4062 7.78811 11.7938 7.78748 12.1806 7.79873C12.4925 7.80748 12.8031 7.82373 13.1144 7.83748C13.1 8.24873 13.08 8.65936 13.06 9.07123ZM9.94625 9.08686C9.5925 9.08686 9.23812 9.08623 8.88437 9.08436C8.46187 9.08123 8.03938 9.08248 7.6175 9.08248C7.62875 8.74936 7.63563 8.41686 7.63125 8.08248C7.63063 7.98186 7.6275 7.87998 7.62562 7.77873C8.1575 7.78061 8.68937 7.78186 9.22187 7.78186C9.47188 7.78186 9.7225 7.78186 9.97312 7.78186C9.96812 8.21686 9.96187 8.65186 9.94625 9.08686ZM6.55188 7.77311C6.56938 8.20936 6.58437 8.64686 6.58625 9.08373C6.00937 9.08811 5.4325 9.09061 4.85563 9.08936C4.83563 9.08936 4.81563 9.08936 4.79625 9.08936C4.81 8.74748 4.82687 8.40623 4.8425 8.06436C4.84687 7.96311 4.85063 7.86186 4.855 7.76061C5.42063 7.76498 5.98625 7.76936 6.55188 7.77311ZM4.79 14.1406C4.78625 14.0162 4.78188 13.8925 4.78125 13.7681C4.78 13.4994 4.7825 13.23 4.78125 12.9612C4.78062 12.7912 4.78062 12.6212 4.78 12.4512C5.08 12.4631 5.38 12.4775 5.68062 12.4819C5.97375 12.4862 6.26625 12.4837 6.55875 12.4831C6.55875 12.5275 6.55813 12.5725 6.5575 12.6169C6.555 13.1175 6.5725 13.6187 6.56562 14.1194C6.46062 14.1206 6.35562 14.1194 6.25062 14.1206C5.76375 14.1281 5.2775 14.1406 4.79 14.1406ZM7.57875 14.1162C7.55813 13.5725 7.54688 13.0281 7.54563 12.4831C8.29813 12.4794 9.05062 12.4769 9.80313 12.48C9.79813 12.9494 9.8 13.4194 9.79125 13.8894C9.79 13.9675 9.78813 14.045 9.78625 14.1231C9.14125 14.1181 8.49687 14.1175 7.85125 14.1156C7.76062 14.115 7.66937 14.1169 7.57875 14.1162ZM10.8019 14.1381C10.79 13.7575 10.7888 13.3762 10.79 12.995C10.79 12.8275 10.7956 12.66 10.7963 12.4925C11.5363 12.5094 12.2763 12.5381 13.0163 12.5594C13.0138 13.0506 13.0125 13.5412 13.0244 14.0325C13.0256 14.0944 13.0281 14.1562 13.0294 14.2181C12.3706 14.1894 11.7125 14.1606 11.0531 14.1425C10.9694 14.1394 10.8856 14.14 10.8019 14.1381ZM14.045 11.3537C14.0425 10.9462 14.0412 10.5394 14.0462 10.1319C14.0625 10.1325 14.0781 10.1325 14.0944 10.1331C14.5156 10.1512 14.9369 10.1581 15.36 10.1644C15.5638 10.1669 15.7669 10.1725 15.9706 10.1812C16.1906 10.1906 16.4225 10.2156 16.6419 10.1812C16.6425 10.2412 16.6438 10.3012 16.6444 10.3606C16.6475 10.7969 16.6625 11.2331 16.6763 11.6694C16.4988 11.6687 16.3206 11.6762 16.1438 11.6762C15.9006 11.6775 15.6587 11.6644 15.4156 11.6519C14.9606 11.6281 14.5044 11.6106 14.0481 11.6025C14.0462 11.5194 14.0456 11.4369 14.045 11.3537ZM3.06687 3.75186C3.60375 3.74811 4.13938 3.74248 4.67563 3.72061C5.1825 3.70123 5.68937 3.68811 6.195 3.69436C6.74188 3.70248 7.28687 3.71936 7.8325 3.73186C8.85125 3.75248 9.87063 3.75498 10.8894 3.74998C11.9438 3.74623 12.9987 3.75123 14.0531 3.75248C14.4575 3.75373 14.8619 3.75373 15.2669 3.75623C15.6119 3.75748 15.9538 3.76061 16.2956 3.80061C16.3137 3.80373 16.3325 3.80623 16.3506 3.80998C16.43 3.82311 16.5044 3.82248 16.5769 3.80998C16.5381 4.87123 16.5462 5.93311 16.5637 6.99561C16.5362 6.99061 16.5112 6.98123 16.4819 6.97811C16.2569 6.95311 16.0281 6.95498 15.8019 6.94436C15.5538 6.93123 15.3056 6.91686 15.0581 6.90436C14.5281 6.87811 13.9987 6.85373 13.4688 6.83436C12.3912 6.79686 11.3125 6.81373 10.2338 6.81373C8.1025 6.81373 5.97062 6.83811 3.83938 6.79936C3.32 6.78998 2.80063 6.78248 2.28125 6.78248C2.015 6.78248 1.74875 6.79123 1.4825 6.79623C1.5225 5.85186 1.58937 4.90873 1.6325 3.96436C1.67375 3.96248 1.71813 3.96498 1.75313 3.95561C1.85625 3.92686 1.94875 3.86686 2.01813 3.78623C2.3675 3.76311 2.71688 3.75436 3.06687 3.75186ZM15.1419 16.2344C15.14 16.2344 15.1388 16.2344 15.1369 16.2344C14.9975 16.2269 14.8575 16.2175 14.7169 16.2125C14.4387 16.2006 14.1594 16.1894 13.88 16.1894C13.3081 16.1869 12.735 16.1919 12.1631 16.1975C11.8588 16.2012 11.5538 16.2 11.2506 16.1987C10.97 16.1975 10.6894 16.1975 10.41 16.1987C9.8175 16.2025 9.2275 16.2081 8.63688 16.2037C7.62687 16.1944 6.61687 16.1775 5.6075 16.1844C4.69937 16.1919 3.78437 16.285 2.87812 16.2081C2.8725 15.9919 2.86625 15.7756 2.84812 15.5594C2.83375 15.3881 2.7875 15.2394 2.66437 15.1137C3.10562 15.115 3.54625 15.1231 3.9875 15.1231C5.04063 15.1231 6.09312 15.0987 7.14687 15.0987C7.68875 15.0987 8.23063 15.095 8.77312 15.095C9.32 15.0937 9.86875 15.0869 10.4156 15.1C11.4619 15.1275 12.5056 15.2206 13.5506 15.2712C13.8519 15.2869 14.1513 15.2956 14.4525 15.3112C14.7131 15.3256 14.9744 15.3469 15.2356 15.3637C15.155 15.4544 15.0875 15.5856 15.1 15.7069C15.1175 15.8825 15.1388 16.0581 15.1419 16.2344ZM15.71 14.3512C15.1912 14.3294 14.6744 14.2825 14.1569 14.2644C14.1212 14.2631 14.0856 14.2612 14.0506 14.26C14.0487 14.0662 14.0513 13.8731 14.0538 13.6806C14.0575 13.4169 14.0575 13.1544 14.0562 12.8906C14.0556 12.7906 14.055 12.6906 14.0544 12.5906C14.445 12.5981 14.8363 12.6025 15.2256 12.6256C15.5013 12.6425 15.7769 12.6644 16.0525 12.6906C16.2656 12.7106 16.4825 12.7269 16.6981 12.7162C16.7094 13.2712 16.7494 13.8275 16.7306 14.3825C16.3894 14.3787 16.0494 14.365 15.71 14.3512Z" fill="white"/>
</svg>
