<svg width="18" height="17" viewBox="0 0 18 17" fill="none" xmlns="http://www.w3.org/2000/svg">
<path d="M17.4969 13.9956C17.505 13.7356 17.4931 13.4744 17.4888 13.2144C17.4825 12.9481 17.4731 12.6825 17.4656 12.4163C17.45 11.8794 17.4269 11.3425 17.4112 10.8056C17.3787 9.71625 17.3863 8.62625 17.3369 7.53688C17.3044 6.81063 17.3044 6.0875 17.3175 5.3625C17.3319 4.59562 17.3875 3.83 17.4306 3.06562C17.4475 2.76562 17.1669 2.51437 16.8794 2.51437C16.8056 2.51437 16.7369 2.53063 16.6744 2.55625C16.6675 2.54125 16.6669 2.52375 16.6587 2.50938C16.5806 2.37688 16.4619 2.31125 16.3238 2.28125C16.3238 2.27625 16.3262 2.2725 16.3262 2.2675C16.3156 2.00375 16.3262 1.74 16.3356 1.47625C16.345 1.17625 16.3538 0.875625 16.3575 0.575625C16.3625 0.286875 16.1131 0.0443751 15.8269 0.0443751C15.5381 0.0443751 15.295 0.28625 15.295 0.575625C15.2975 1.12937 15.3175 1.6875 15.2813 2.24063C15.0938 2.24063 14.9056 2.24063 14.7175 2.2425C14.5181 2.24375 14.3181 2.24375 14.1188 2.24375C14.06 1.74375 14.0669 1.23938 14.0981 0.7375C14.1162 0.44625 13.8406 0.203125 13.5637 0.203125C13.2619 0.203125 13.0425 0.4475 13.0281 0.7375C13.0044 1.2425 13.0431 1.74313 13.0737 2.24625C12.6 2.24938 12.1262 2.24688 11.6525 2.24563C11.6744 2.18813 11.6887 2.1275 11.6844 2.06312C11.6519 1.6525 11.6569 1.23813 11.6313 0.826875C11.6131 0.533125 11.3988 0.28625 11.0906 0.28625C10.8138 0.28625 10.5281 0.531875 10.5512 0.826875C10.5806 1.23875 10.625 1.65062 10.6325 2.06312C10.6337 2.1275 10.6494 2.18813 10.6712 2.245C10.4506 2.24438 10.23 2.245 10.0094 2.245C9.80187 2.245 9.59438 2.23687 9.3875 2.23562C9.38563 2.19687 9.38813 2.15938 9.38125 2.11813C9.3425 1.75 9.32875 1.3775 9.295 1.00938C9.28187 0.855 9.24312 0.72375 9.13 0.610625C9.025 0.505625 8.88063 0.445625 8.7325 0.445625C8.58438 0.445625 8.44 0.505625 8.33375 0.610625C8.23875 0.706875 8.15562 0.868125 8.17 1.00938C8.19187 1.23 8.21687 1.44875 8.24125 1.66938C8.26125 1.85313 8.27938 2.03688 8.305 2.22C7.84438 2.2125 7.38375 2.21437 6.92312 2.19875C6.875 2.19687 6.82625 2.1975 6.77813 2.19563C6.77313 1.75125 6.77313 1.30688 6.75 0.86375C6.73438 0.5625 6.51063 0.31 6.1975 0.31C5.91125 0.31 5.62437 0.561875 5.645 0.86375C5.67437 1.29938 5.69813 1.73563 5.70938 2.1725C5.5925 2.17125 5.47625 2.165 5.35937 2.165C5.34125 2.165 5.3225 2.165 5.30438 2.165C4.97125 2.165 4.63875 2.17187 4.30625 2.1775C4.32 1.67375 4.29687 1.16688 4.2775 0.664375C4.26562 0.363125 4.03438 0.110625 3.72375 0.110625C3.4325 0.110625 3.15563 0.3625 3.17 0.664375C3.19375 1.1725 3.22 1.67938 3.24375 2.18688C2.995 2.1875 2.74625 2.1875 2.49813 2.18938C2.38375 2.19125 2.27063 2.19188 2.1575 2.19313C2.165 1.64375 2.2 1.09438 2.20875 0.544375C2.21375 0.248125 1.95687 0 1.66312 0C1.36562 0 1.12 0.248125 1.11875 0.544375C1.11562 1.10875 1.11625 1.67187 1.095 2.235C1.08875 2.23562 1.08125 2.23563 1.075 2.23688C0.985625 2.26188 0.9075 2.3075 0.8425 2.3725C0.77375 2.44125 0.73625 2.5275 0.713125 2.61813C0.459375 2.67438 0.27375 2.89187 0.265625 3.15875C0.231875 4.2375 0.215625 5.31688 0.20375 6.39688C0.1175 6.48563 0.0624999 6.60438 0.0624999 6.74125C0.0624999 6.86125 0.11375 6.97438 0.19 7.06625C0.1825 7.5475 0.1725 8.02813 0.158125 8.51C0.14375 9.05563 0.153125 9.60188 0.130625 10.1488C0.11625 10.4606 0.0968751 10.7725 0.0875001 11.0844C0.0781251 11.3769 0.074375 11.6694 0.068125 11.9619C0.05625 12.5556 0.05125 13.1488 0.04875 13.7413C0.04875 13.7644 0.059375 13.7844 0.061875 13.8069C0.025625 13.8775 0 13.955 0 14.0387C0 14.3244 0.239375 14.5675 0.52625 14.565C0.85 14.5631 1.175 14.5556 1.49938 14.5494C1.395 14.66 1.30875 14.8319 1.32437 14.9863C1.35062 15.2606 1.37375 15.535 1.35812 15.8113C1.35437 15.8775 1.34875 15.9438 1.3475 16.01C1.345 16.1644 1.38625 16.2831 1.44375 16.4219C1.535 16.6375 1.76375 16.7506 1.97688 16.805C2.10688 16.8375 2.25 16.84 2.385 16.8481C2.4525 16.8531 2.52125 16.8531 2.59 16.8531C2.75125 16.8544 2.91375 16.8531 3.075 16.8494C3.37813 16.8444 3.68062 16.8194 3.9825 16.7988C4.54562 16.76 5.10687 16.735 5.67312 16.7313C6.2775 16.7275 6.88187 16.7194 7.48625 16.7169C8.0775 16.7131 8.66937 16.7288 9.26062 16.7313C9.84312 16.7325 10.4275 16.7081 11.0113 16.7081C12.1456 16.7081 13.2806 16.7094 14.4138 16.7369C14.5981 16.7419 14.7812 16.7475 14.9637 16.7575C15.0419 16.7613 15.12 16.765 15.1975 16.7681C15.2819 16.7706 15.3756 16.76 15.4537 16.7319C15.625 16.6719 15.7306 16.5731 15.8281 16.425C15.9319 16.2688 15.9375 16.0494 15.9487 15.8688C15.9537 15.7844 15.9463 15.7 15.9438 15.6169C15.9356 15.4087 15.9075 15.2 15.8788 14.9931C15.86 14.9269 15.8187 14.8731 15.7775 14.82C15.8675 14.8219 15.9581 14.8262 16.0481 14.8287C16.3563 14.8369 16.6644 14.8575 16.9712 14.8444C17.2544 14.8325 17.4913 14.6181 17.4913 14.3256C17.4913 14.2725 17.4756 14.2219 17.4588 14.1712C17.4794 14.1156 17.495 14.0575 17.4969 13.9956ZM1.07625 13.5225C1.07562 13.3281 1.07625 13.1331 1.08313 12.9387C1.0925 12.6644 1.095 12.3912 1.09375 12.1162C1.09312 12.0031 1.09937 11.89 1.1 11.7769C1.4975 11.7969 1.895 11.815 2.2925 11.8319C2.69625 11.8487 3.1 11.845 3.50313 11.8506C3.50313 11.8994 3.50313 11.9488 3.5025 11.9975C3.49813 12.5169 3.51063 13.0381 3.49438 13.5575C2.68875 13.5456 1.8825 13.5325 1.07625 13.5225ZM2.26312 7.17938C2.68625 7.1725 3.11063 7.1775 3.53438 7.18125C3.525 7.62625 3.51688 8.07062 3.51375 8.51562C3.10438 8.51813 2.69438 8.52062 2.285 8.51812C1.91688 8.515 1.54937 8.52063 1.1825 8.53063C1.18937 8.09438 1.19563 7.65812 1.2025 7.22125C1.55563 7.205 1.90875 7.185 2.26312 7.17938ZM16.3469 7.4375C16.3563 7.67875 16.3631 7.91938 16.3719 8.16063C16.3762 8.29313 16.3744 8.425 16.3769 8.5575C16.3325 8.555 16.2887 8.55 16.2437 8.5575C16.01 8.56375 15.7706 8.54688 15.5381 8.53813C15.285 8.53 15.0337 8.52125 14.7819 8.52125C14.4681 8.52125 14.155 8.51437 13.8412 8.50937C13.8662 8.18937 13.8956 7.86938 13.9188 7.54813C13.9244 7.46875 13.9281 7.38875 13.9331 7.30938C14.2769 7.32375 14.6206 7.33625 14.9637 7.35625C15.3875 7.37938 15.8075 7.43938 16.2312 7.45875C16.2719 7.46063 16.3081 7.44563 16.3469 7.4375ZM12.7706 11.015C12.5313 11.0138 12.2925 11.0156 12.0531 11.0081C11.555 10.9944 11.0563 10.98 10.5575 10.9725C10.5588 10.9237 10.5575 10.875 10.5594 10.8263C10.5744 10.3931 10.6025 9.96063 10.6306 9.52813C10.6575 9.52813 10.6844 9.52875 10.7119 9.52875C10.9969 9.53 11.2837 9.53 11.57 9.53C11.9756 9.52938 12.3812 9.53 12.7875 9.53438C12.7844 9.78188 12.7756 10.0287 12.7756 10.2762C12.775 10.5225 12.7725 10.7688 12.7706 11.015ZM1.1225 10.5425C1.13813 10.225 1.14437 9.9075 1.15375 9.59063C1.93812 9.54438 2.72312 9.52125 3.50937 9.50938C3.50937 9.82125 3.51062 10.1337 3.50812 10.445C3.50687 10.59 3.50688 10.735 3.50688 10.88C3.14438 10.8719 2.78188 10.8644 2.42063 10.8438C2.14 10.8281 1.85937 10.7981 1.57937 10.7775C1.42562 10.7662 1.27313 10.7556 1.12 10.7456C1.12188 10.6781 1.11938 10.6106 1.1225 10.5425ZM4.52625 10.7475C4.52562 10.3306 4.52563 9.91375 4.52688 9.49687C5.12813 9.49437 5.72937 9.49375 6.33062 9.49563C6.32687 9.78313 6.3225 10.0706 6.32062 10.3587C6.31875 10.5562 6.3175 10.7538 6.31625 10.9513C5.72 10.9444 5.12313 10.9313 4.5275 10.91C4.52688 10.8556 4.52625 10.8013 4.52625 10.7475ZM7.29688 10.7594C7.29938 10.3388 7.31437 9.91813 7.33125 9.4975C7.36687 9.4975 7.4025 9.4975 7.4375 9.4975C8.175 9.4975 8.9125 9.50813 9.65 9.51688C9.64 9.72813 9.63187 9.93937 9.62062 10.15C9.60625 10.4219 9.59125 10.6937 9.57875 10.9662C9.21875 10.965 8.85813 10.9619 8.49813 10.9619C8.10438 10.9631 7.71062 10.9631 7.31812 10.9606C7.31062 10.9606 7.30313 10.9606 7.29563 10.9606C7.29688 10.8938 7.29625 10.8263 7.29688 10.7594ZM12.81 8.4975C12.6688 8.49625 12.5281 8.49375 12.3869 8.49375C11.8231 8.49375 11.2594 8.5025 10.695 8.50813C10.7156 8.21125 10.7375 7.91438 10.755 7.6175C10.7631 7.4825 10.7644 7.34813 10.7687 7.21313C11.1562 7.21438 11.5438 7.21375 11.9306 7.225C12.2425 7.23375 12.5531 7.25 12.8644 7.26375C12.85 7.675 12.83 8.08563 12.81 8.4975ZM9.69625 8.51313C9.3425 8.51313 8.98812 8.5125 8.63437 8.51063C8.21187 8.5075 7.78938 8.50875 7.3675 8.50875C7.37875 8.17563 7.38563 7.84312 7.38125 7.50875C7.38063 7.40812 7.3775 7.30625 7.37562 7.205C7.9075 7.20687 8.43937 7.20812 8.97187 7.20812C9.22187 7.20812 9.4725 7.20812 9.72312 7.20812C9.71812 7.64312 9.71187 8.07813 9.69625 8.51313ZM6.30188 7.19938C6.31938 7.63563 6.33437 8.07313 6.33625 8.51C5.75937 8.51438 5.1825 8.51688 4.60563 8.51562C4.58563 8.51562 4.56563 8.51562 4.54625 8.51562C4.56 8.17375 4.57687 7.8325 4.5925 7.49063C4.59687 7.38938 4.60063 7.28813 4.605 7.18688C5.17063 7.19125 5.73625 7.19563 6.30188 7.19938ZM4.54 13.5669C4.53625 13.4425 4.53188 13.3188 4.53125 13.1944C4.53 12.9256 4.5325 12.6562 4.53125 12.3875C4.53062 12.2175 4.53063 12.0475 4.53 11.8775C4.83 11.8894 5.13 11.9037 5.43063 11.9081C5.72375 11.9125 6.01625 11.91 6.30875 11.9094C6.30875 11.9538 6.30813 11.9988 6.3075 12.0431C6.305 12.5438 6.3225 13.045 6.31562 13.5456C6.21062 13.5469 6.10562 13.5456 6.00062 13.5469C5.51375 13.5544 5.0275 13.5669 4.54 13.5669ZM7.32875 13.5425C7.30812 12.9988 7.29688 12.4544 7.29563 11.9094C8.04813 11.9056 8.80062 11.9031 9.55312 11.9063C9.54812 12.3756 9.55 12.8456 9.54125 13.3156C9.54 13.3938 9.53812 13.4713 9.53625 13.5494C8.89125 13.5444 8.24687 13.5437 7.60125 13.5419C7.51062 13.5412 7.41937 13.5431 7.32875 13.5425ZM10.5519 13.5644C10.54 13.1838 10.5388 12.8025 10.54 12.4213C10.54 12.2538 10.5456 12.0862 10.5463 11.9187C11.2863 11.9356 12.0263 11.9644 12.7663 11.9856C12.7638 12.4769 12.7625 12.9675 12.7744 13.4588C12.7756 13.5206 12.7781 13.5825 12.7794 13.6444C12.1206 13.6156 11.4625 13.5869 10.8031 13.5688C10.7194 13.5656 10.6356 13.5663 10.5519 13.5644ZM13.795 10.78C13.7925 10.3725 13.7912 9.96563 13.7962 9.55813C13.8125 9.55875 13.8281 9.55875 13.8444 9.55938C14.2656 9.5775 14.6869 9.58438 15.11 9.59063C15.3138 9.59313 15.5169 9.59875 15.7206 9.6075C15.9406 9.61687 16.1725 9.64187 16.3919 9.6075C16.3925 9.6675 16.3938 9.7275 16.3944 9.78688C16.3975 10.2231 16.4125 10.6594 16.4262 11.0956C16.2487 11.095 16.0706 11.1025 15.8938 11.1025C15.6506 11.1037 15.4087 11.0906 15.1656 11.0781C14.7106 11.0544 14.2544 11.0369 13.7981 11.0287C13.7962 10.9456 13.7956 10.8631 13.795 10.78ZM2.81687 3.17813C3.35375 3.17438 3.88938 3.16875 4.42563 3.14687C4.9325 3.1275 5.43938 3.11438 5.945 3.12063C6.49188 3.12875 7.03687 3.14563 7.5825 3.15813C8.60125 3.17875 9.62063 3.18125 10.6394 3.17625C11.6938 3.1725 12.7487 3.1775 13.8031 3.17875C14.2075 3.18 14.6119 3.18 15.0169 3.1825C15.3619 3.18375 15.7038 3.18688 16.0456 3.22688C16.0638 3.23 16.0825 3.2325 16.1006 3.23625C16.18 3.24938 16.2544 3.24875 16.3269 3.23625C16.2881 4.2975 16.2962 5.35938 16.3137 6.42188C16.2862 6.41688 16.2613 6.4075 16.2319 6.40438C16.0069 6.37938 15.7781 6.38125 15.5519 6.37063C15.3037 6.3575 15.0556 6.34313 14.8081 6.33063C14.2781 6.30438 13.7487 6.28 13.2187 6.26063C12.1412 6.22313 11.0625 6.24 9.98375 6.24C7.8525 6.24 5.72063 6.26438 3.58938 6.22563C3.07 6.21625 2.55062 6.20875 2.03125 6.20875C1.765 6.20875 1.49875 6.2175 1.2325 6.2225C1.2725 5.27813 1.33937 4.335 1.3825 3.39063C1.42375 3.38875 1.46813 3.39125 1.50313 3.38188C1.60625 3.35313 1.69875 3.29313 1.76812 3.2125C2.1175 3.18938 2.46687 3.18063 2.81687 3.17813ZM14.8919 15.6606C14.89 15.6606 14.8888 15.6606 14.8869 15.6606C14.7475 15.6531 14.6075 15.6438 14.4669 15.6388C14.1887 15.6269 13.9094 15.6156 13.63 15.6156C13.0581 15.6131 12.485 15.6181 11.9131 15.6238C11.6088 15.6275 11.3037 15.6263 11.0006 15.625C10.72 15.6237 10.4394 15.6237 10.16 15.625C9.5675 15.6288 8.9775 15.6344 8.38687 15.63C7.37687 15.6206 6.36687 15.6038 5.3575 15.6106C4.44937 15.6181 3.53437 15.7113 2.62812 15.6344C2.6225 15.4181 2.61625 15.2019 2.59813 14.9856C2.58375 14.8144 2.5375 14.6656 2.41437 14.54C2.85562 14.5412 3.29625 14.5494 3.7375 14.5494C4.79062 14.5494 5.84312 14.525 6.89687 14.525C7.43875 14.525 7.98063 14.5213 8.52313 14.5213C9.07 14.52 9.61875 14.5131 10.1656 14.5263C11.2119 14.5538 12.2556 14.6469 13.3006 14.6975C13.6019 14.7131 13.9013 14.7219 14.2025 14.7375C14.4631 14.7519 14.7244 14.7731 14.9856 14.79C14.905 14.8806 14.8375 15.0119 14.85 15.1331C14.8675 15.3088 14.8887 15.4844 14.8919 15.6606ZM15.46 13.7775C14.9413 13.7556 14.4244 13.7088 13.9069 13.6906C13.8712 13.6894 13.8356 13.6875 13.8006 13.6863C13.7987 13.4925 13.8013 13.2994 13.8038 13.1069C13.8075 12.8431 13.8075 12.5806 13.8063 12.3169C13.8056 12.2169 13.805 12.1169 13.8044 12.0169C14.195 12.0244 14.5863 12.0288 14.9756 12.0519C15.2513 12.0688 15.5269 12.0906 15.8025 12.1169C16.0156 12.1369 16.2325 12.1531 16.4481 12.1425C16.4594 12.6975 16.4994 13.2537 16.4806 13.8087C16.1394 13.805 15.7994 13.7913 15.46 13.7775Z" fill="#444444"/>
</svg>
