<svg width="48" height="46" viewBox="0 0 48 46" fill="none" xmlns="http://www.w3.org/2000/svg">
<path d="M20.037 28.7466L10.5462 20.2928C9.92754 19.735 9.10498 19.4278 8.23018 19.4278C7.6292 19.4278 7.05293 19.5727 6.55049 19.8443V9.66744C6.55049 9.14795 6.40039 8.65963 6.13818 8.23514C6.31084 8.18222 6.49297 8.15308 6.67969 8.15308C7.60586 8.15308 8.35928 8.83247 8.35928 9.66753V17.1474C8.35928 17.5447 8.7165 17.8668 9.15713 17.8668C9.59775 17.8668 9.95498 17.5447 9.95498 17.1474V9.66753C9.95498 8.03914 8.48574 6.71436 6.67969 6.71436C6.07158 6.71436 5.48574 6.86501 4.97695 7.145C4.48066 6.87196 3.89805 6.71436 3.27539 6.71436C1.46934 6.71436 0 8.03914 0 9.66814L0.0138672 23.853C0.0145508 24.4886 0.275488 25.3857 0.620898 25.9398C0.626465 25.9487 0.632129 25.9574 0.638281 25.9661L10.4654 40.2679C10.6727 40.6082 10.8596 41.2563 10.8596 41.6383V44.3492C10.8596 44.7465 11.2168 45.0686 11.6574 45.0686C12.098 45.0686 12.4553 44.7465 12.4553 44.3492V41.6383C12.4553 41.0026 12.1946 40.1052 11.8491 39.5509C11.8436 39.542 11.8379 39.5333 11.8318 39.5247L2.00439 25.2227C1.79717 24.8822 1.60996 24.2339 1.60947 23.8517L1.59561 9.66744C1.59561 8.83238 2.34902 8.15299 3.2752 8.15299C4.20137 8.15299 4.95479 8.83238 4.95479 9.66744V22.381C4.95479 22.399 4.95635 22.4165 4.95781 22.434C4.97236 23.1725 5.29062 23.9069 5.91416 24.4692L13.5371 31.3422C13.8487 31.6232 14.3539 31.6232 14.6654 31.3422C14.9771 31.0613 14.9771 30.6058 14.6654 30.3249L7.04258 23.4518C6.72539 23.1658 6.55059 22.7854 6.55059 22.3809C6.55059 21.9764 6.72539 21.5961 7.04258 21.31C7.35977 21.0239 7.78164 20.8664 8.23027 20.8664C8.67891 20.8664 9.10068 21.024 9.42129 21.3131L18.9121 29.7669C19.9676 30.7185 20.8592 32.6594 20.8592 34.0052V44.3618C20.8592 44.7591 21.2164 45.0812 21.657 45.0812C22.0977 45.0812 22.4549 44.7591 22.4549 44.3618V34.0052C22.4549 32.2789 21.3943 29.9704 20.037 28.7466Z" fill="white"/>
<path d="M44.2943 6.71426C43.6717 6.71426 43.0891 6.87187 42.5929 7.14491C42.084 6.86492 41.498 6.71426 40.8901 6.71426C39.0841 6.71426 37.6147 8.03905 37.6147 9.66743V17.1473C37.6147 17.5446 37.972 17.8667 38.4126 17.8667C38.8532 17.8667 39.2104 17.5446 39.2104 17.1473V9.66743C39.2104 8.83238 39.964 8.15299 40.89 8.15299C41.0768 8.15299 41.2589 8.18213 41.4314 8.23505C41.1691 8.65962 41.0191 9.14786 41.0191 9.66735V19.8443C40.5167 19.5727 39.9404 19.4277 39.3395 19.4277C38.4645 19.4277 37.642 19.7349 37.0269 20.2896L27.5292 28.7495C26.1753 29.9703 25.1147 32.2788 25.1147 34.0051V44.3619C25.1147 44.7592 25.472 45.0813 25.9126 45.0813C26.3532 45.0813 26.7104 44.7592 26.7104 44.3619V34.0053C26.7104 32.6595 27.602 30.7187 28.6541 29.7701L38.1518 21.3102C38.4689 21.0242 38.8908 20.8666 39.3395 20.8666C39.7881 20.8666 40.2099 21.0242 40.5271 21.3102C40.8443 21.5962 41.0191 21.9765 41.0191 22.381C41.0191 22.7856 40.8443 23.1659 40.5271 23.452L32.9042 30.325C32.5926 30.606 32.5926 31.0615 32.9042 31.3423C33.2158 31.6233 33.721 31.6233 34.0325 31.3423L41.6555 24.4693C42.2791 23.907 42.5973 23.1726 42.6118 22.4341C42.6132 22.4166 42.6148 22.3989 42.6148 22.3811V9.66752C42.6148 8.83246 43.3684 8.15308 44.2944 8.15308C45.2206 8.15308 45.9741 8.83246 45.9741 9.66682L45.9603 23.8519C45.96 24.234 45.7726 24.8823 45.5652 25.2229L35.7381 39.5247C35.7321 39.5333 35.7264 39.5421 35.7208 39.5509C35.3752 40.1051 35.1146 41.0024 35.1146 41.6383V44.3492C35.1146 44.7465 35.4719 45.0686 35.9125 45.0686C36.3531 45.0686 36.7103 44.7465 36.7103 44.3492V41.6383C36.7103 41.2562 36.8973 40.6082 37.1044 40.2679L46.9315 25.966C46.9375 25.9574 46.9433 25.9486 46.9489 25.9398C47.2944 25.3856 47.5554 24.4885 47.556 23.853L47.5698 9.66743C47.5696 8.03914 46.1004 6.71426 44.2943 6.71426Z" fill="white"/>
<path d="M35.2209 5.27547C35.6615 5.27547 36.0188 4.95338 36.0188 4.55611V0.719362C36.0188 0.322084 35.6615 0 35.2209 0H12.3486C11.908 0 11.5508 0.322084 11.5508 0.719362V4.55602C11.5508 4.9533 11.908 5.27538 12.3486 5.27538H12.6146V6.7141H12.3486C11.908 6.7141 11.5508 7.03619 11.5508 7.43347V11.2703C11.5508 11.6676 11.908 11.9897 12.3486 11.9897H12.6146V13.4284H12.3486C11.908 13.4284 11.5508 13.7505 11.5508 14.1477V17.9844C11.5508 18.3817 11.908 18.7038 12.3486 18.7038H35.221C35.6616 18.7038 36.0188 18.3817 36.0188 17.9844V14.1477C36.0188 13.7505 35.6616 13.4284 35.221 13.4284H34.9551V11.9897H35.221C35.6616 11.9897 36.0188 11.6676 36.0188 11.2703V7.43364C36.0188 7.03636 35.6616 6.71428 35.221 6.71428H34.9551V5.27556L35.2209 5.27547ZM34.423 17.2651H13.1465V14.8672H34.423V17.2651ZM34.423 10.5509H30.9656C30.525 10.5509 30.1678 10.873 30.1678 11.2703C30.1678 11.6676 30.525 11.9897 30.9656 11.9897H33.3593V13.4284H14.2103V11.9897H27.7741C28.2147 11.9897 28.572 11.6676 28.572 11.2703C28.572 10.873 28.2147 10.5509 27.7741 10.5509H13.1465V8.153H34.423V10.5509ZM14.2103 6.71419V5.27547H33.3592V6.71419H14.2103ZM34.423 3.83666H13.1465V1.43872H34.423V3.83666Z" fill="white"/>
</svg>
