<svg width="48" height="46" viewBox="0 0 48 46" fill="none" xmlns="http://www.w3.org/2000/svg">
<path d="M20.2523 29.6202L10.7615 21.1664C10.1429 20.6086 9.32031 20.3014 8.44551 20.3014C7.84453 20.3014 7.26826 20.4464 6.76582 20.718V10.5411C6.76582 10.0216 6.61572 9.53328 6.35352 9.1088C6.52617 9.05588 6.7083 9.02674 6.89502 9.02674C7.82119 9.02674 8.57461 9.70612 8.57461 10.5412V18.0211C8.57461 18.4183 8.93184 18.7404 9.37246 18.7404C9.81309 18.7404 10.1703 18.4183 10.1703 18.0211V10.5412C10.1703 8.9128 8.70107 7.58801 6.89502 7.58801C6.28691 7.58801 5.70107 7.73866 5.19229 8.01866C4.696 7.74562 4.11338 7.58801 3.49072 7.58801C1.68467 7.58801 0.215332 8.9128 0.215332 10.5418L0.229199 24.7267C0.229883 25.3622 0.49082 26.2594 0.83623 26.8135C0.841797 26.8224 0.847461 26.8311 0.853613 26.8397L10.6808 41.1415C10.888 41.4819 11.0749 42.13 11.0749 42.5119V45.2229C11.0749 45.6202 11.4321 45.9422 11.8728 45.9422C12.3134 45.9422 12.6706 45.6202 12.6706 45.2229V42.5119C12.6706 41.8762 12.41 40.9788 12.0645 40.4246C12.0589 40.4157 12.0532 40.4069 12.0472 40.3983L2.21973 26.0964C2.0125 25.7558 1.82529 25.1075 1.8248 24.7254L1.81094 10.5411C1.81094 9.70604 2.56436 9.02665 3.49053 9.02665C4.4167 9.02665 5.17012 9.70604 5.17012 10.5411V23.2547C5.17012 23.2727 5.17168 23.2902 5.17314 23.3077C5.1877 24.0462 5.50596 24.7806 6.12949 25.3429L13.7524 32.2159C14.0641 32.4969 14.5692 32.4969 14.8808 32.2159C15.1924 31.9349 15.1924 31.4795 14.8808 31.1986L7.25791 24.3255C6.94072 24.0395 6.76592 23.6591 6.76592 23.2545C6.76592 22.85 6.94072 22.4697 7.25791 22.1837C7.5751 21.8976 7.99697 21.7401 8.44561 21.7401C8.89424 21.7401 9.31602 21.8977 9.63662 22.1867L19.1274 30.6405C20.1829 31.5922 21.0745 33.533 21.0745 34.8789V45.2355C21.0745 45.6328 21.4317 45.9548 21.8724 45.9548C22.313 45.9548 22.6702 45.6328 22.6702 45.2355V34.8789C22.6702 33.1526 21.6097 30.844 20.2523 29.6202Z" fill="black"/>
<path d="M44.5097 7.58792C43.887 7.58792 43.3044 7.74553 42.8082 8.01857C42.2993 7.73857 41.7134 7.58792 41.1055 7.58792C39.2994 7.58792 37.8301 8.91271 37.8301 10.5411V18.021C37.8301 18.4182 38.1873 18.7403 38.6279 18.7403C39.0686 18.7403 39.4258 18.4182 39.4258 18.021V10.5411C39.4258 9.70603 40.1793 9.02665 41.1054 9.02665C41.2921 9.02665 41.4742 9.05579 41.6468 9.10871C41.3845 9.53328 41.2345 10.0215 41.2345 10.541V20.7179C40.732 20.4464 40.1558 20.3013 39.5548 20.3013C38.6799 20.3013 37.8573 20.6086 37.2422 21.1633L27.7445 29.6232C26.3906 30.8439 25.3301 33.1525 25.3301 34.8788V45.2356C25.3301 45.6328 25.6873 45.9549 26.1279 45.9549C26.5686 45.9549 26.9258 45.6328 26.9258 45.2356V34.8789C26.9258 33.5332 27.8174 31.5923 28.8694 30.6438L38.3671 22.1838C38.6843 21.8979 39.1062 21.7402 39.5548 21.7402C40.0034 21.7402 40.4252 21.8979 40.7425 22.1838C41.0597 22.4698 41.2345 22.8502 41.2345 23.2547C41.2345 23.6593 41.0597 24.0396 40.7425 24.3256L33.1195 31.1987C32.8079 31.4796 32.8079 31.9351 33.1195 32.216C33.4312 32.497 33.9363 32.497 34.2479 32.216L41.8708 25.343C42.4944 24.7807 42.8126 24.0463 42.8271 23.3078C42.8285 23.2903 42.8302 23.2726 42.8302 23.2548V10.5412C42.8302 9.70612 43.5837 9.02673 44.5098 9.02673C45.4359 9.02673 46.1895 9.70612 46.1895 10.5405L46.1756 24.7256C46.1753 25.1077 45.9879 25.756 45.7806 26.0966L35.9534 40.3983C35.9475 40.4069 35.9417 40.4157 35.9361 40.4246C35.5905 40.9787 35.33 41.876 35.33 42.5119V45.2229C35.33 45.6202 35.6872 45.9422 36.1278 45.9422C36.5685 45.9422 36.9257 45.6202 36.9257 45.2229V42.5119C36.9257 42.1299 37.1126 41.4818 37.3197 41.1415L47.1469 26.8397C47.1528 26.8311 47.1586 26.8223 47.1643 26.8135C47.5098 26.2593 47.7707 25.3622 47.7713 24.7267L47.7852 10.5411C47.785 8.9128 46.3157 7.58792 44.5097 7.58792Z" fill="black"/>
<path d="M35.4362 6.14913C35.8769 6.14913 36.2341 5.82704 36.2341 5.42976V1.59302C36.2341 1.19574 35.8769 0.873657 35.4362 0.873657H12.564C12.1233 0.873657 11.7661 1.19574 11.7661 1.59302V5.42968C11.7661 5.82695 12.1233 6.14904 12.564 6.14904H12.8299V7.58776H12.564C12.1233 7.58776 11.7661 7.90985 11.7661 8.30712V12.144C11.7661 12.5412 12.1233 12.8633 12.564 12.8633H12.8299V14.302H12.564C12.1233 14.302 11.7661 14.6241 11.7661 15.0214V18.8581C11.7661 19.2553 12.1233 19.5774 12.564 19.5774H35.4363C35.877 19.5774 36.2342 19.2553 36.2342 18.8581V15.0214C36.2342 14.6241 35.877 14.302 35.4363 14.302H35.1704V12.8633H35.4363C35.877 12.8633 36.2342 12.5412 36.2342 12.144V8.3073C36.2342 7.91002 35.877 7.58794 35.4363 7.58794H35.1704V6.14921L35.4362 6.14913ZM34.6384 18.1388H13.3618V15.7409H34.6384V18.1388ZM34.6384 11.4246H31.181C30.7403 11.4246 30.3831 11.7467 30.3831 12.144C30.3831 12.5412 30.7403 12.8633 31.181 12.8633H33.5746V14.302H14.4256V12.8633H27.9895C28.4301 12.8633 28.7873 12.5412 28.7873 12.144C28.7873 11.7467 28.4301 11.4246 27.9895 11.4246H13.3618V9.02666H34.6384V11.4246ZM14.4256 7.58785V6.14913H33.5745V7.58785H14.4256ZM34.6384 4.71031H13.3618V2.31238H34.6384V4.71031Z" fill="black"/>
</svg>
