<svg width="104" height="48" viewBox="0 0 104 48" fill="none" xmlns="http://www.w3.org/2000/svg">
<g clip-path="url(#clip0_529_4696)">
<path d="M95.3426 5.16135C90.9333 3.57087 87.3048 1.67912 86.1256 0C84.944 1.67856 81.3172 3.57031 76.9085 5.16135C71.7109 7.03627 68.2511 9.82508 68.2511 17.3405V30.6607C68.2511 38.1783 71.7115 40.9643 76.9085 42.8392C81.3178 44.4297 84.944 46.3214 86.1256 48.0006C87.3043 46.322 90.9333 44.4303 95.3426 42.8392C100.54 40.9643 104 38.1755 104 30.6607V17.3399C104 9.82228 100.54 7.03627 95.3426 5.16135Z" fill="white"/>
<path d="M86.1325 43.9714C84.2759 42.6379 81.5656 41.324 78.0266 40.0443C73.6647 38.4667 71.2981 36.4852 71.2981 30.5429V17.4578C71.2981 11.5155 73.6659 9.53455 78.0266 7.95641C81.5656 6.67673 84.2764 5.36283 86.1325 4.0293C88.405 5.65063 91.5883 7.00268 94.2217 7.95641C98.5854 9.53455 100.95 11.5155 100.95 17.4578V30.5435C100.95 36.4858 98.5825 38.4673 94.2217 40.0449C91.5883 40.9975 88.405 42.3506 86.1325 43.9714Z" stroke="#E6CD96" stroke-width="2"/>
<path d="M94.381 34.1063C94.3014 34.071 94.2144 34.0541 94.1269 34.057C94.0756 34.0584 94.0247 34.0665 93.9756 34.0811L93.9433 34.0934C93.9108 34.1044 93.8793 34.1179 93.8491 34.1338H93.8451C93.8249 34.1476 93.8056 34.1626 93.7873 34.1787C93.7706 34.1865 93.7573 34.1944 93.7573 34.1944C93.7573 34.1944 93.7492 34.2062 93.7446 34.2107C93.7361 34.2161 93.7282 34.2223 93.7209 34.2292V34.2382C93.6811 34.2738 93.6472 34.3153 93.6204 34.361C93.4338 34.445 93.2261 34.474 93.0227 34.4446C92.3424 34.3821 91.6774 34.2101 91.0551 33.9358C90.818 33.8419 90.5729 33.7359 90.32 33.6177C90.3153 33.6311 89.8395 34.0844 89.709 34.2303C89.5613 34.3776 89.4528 34.5576 89.3931 34.7549L89.6171 34.862C90.6966 35.4292 91.8877 35.7675 93.1116 35.8544C93.3199 35.8562 93.5277 35.8343 93.7307 35.7894C93.9371 35.7551 94.1323 35.6743 94.3007 35.5536C94.4692 35.433 94.6063 35.2756 94.7009 35.0943C94.7468 35.009 94.7749 34.9157 94.7835 34.8198C94.7921 34.7239 94.7811 34.6273 94.7511 34.5355C94.7211 34.4438 94.6727 34.3588 94.6087 34.2853C94.5446 34.2118 94.4663 34.1514 94.3781 34.1074" fill="#E6CD96"/>
<path d="M81.927 33.6171C81.6748 33.7357 81.4298 33.8419 81.1919 33.9358C80.5696 34.2098 79.905 34.3817 79.2249 34.4446C79.0213 34.4741 78.8132 34.4448 78.6266 34.3605C78.5991 34.3152 78.5653 34.2738 78.5261 34.2376V34.2292C78.5197 34.2208 78.5111 34.218 78.5024 34.2107C78.4937 34.2034 78.4943 34.1983 78.4897 34.1939C78.4851 34.1894 78.4764 34.186 78.4597 34.1782C78.4429 34.1703 78.4192 34.1445 78.4019 34.1333H78.3973C78.3671 34.1173 78.3357 34.1038 78.3032 34.0929C78.2922 34.089 78.2818 34.0833 78.2708 34.0805C78.2218 34.0657 78.1709 34.0574 78.1195 34.0559C78.0321 34.053 77.9451 34.0697 77.8654 34.1047C77.7771 34.1484 77.6986 34.2088 77.6344 34.2822C77.5702 34.3556 77.5216 34.4406 77.4914 34.5324C77.4612 34.6241 77.4501 34.7208 77.4586 34.8167C77.467 34.9127 77.495 35.0061 77.5409 35.0915C77.6366 35.2726 77.7742 35.4296 77.943 35.5503C78.1117 35.671 78.307 35.7521 78.5134 35.7871C78.7173 35.8316 78.9258 35.8533 79.1348 35.8517C80.358 35.7656 81.5484 35.4279 82.627 34.8609C82.6847 34.8357 82.851 34.7543 82.851 34.7543C82.7929 34.5568 82.6851 34.3763 82.5375 34.2292C82.4075 34.0833 81.9311 33.6306 81.9264 33.6166" fill="#E6CD96"/>
<path d="M99.5105 25.6318L99.4828 25.6206C99.4314 25.606 99.2247 25.5398 99.0364 25.4832C98.5274 25.3382 97.9987 25.2694 97.4685 25.279C97.2785 25.279 97.0821 25.2857 96.8852 25.298C95.738 25.3834 94.6141 25.6578 93.5616 26.1093C92.0142 26.8184 90.5617 27.7081 89.2361 28.7589C88.1099 29.5848 87.0872 30.3792 86.1256 31.0765C85.1629 30.3792 84.1373 29.5848 83.0134 28.7589C81.6878 27.7082 80.2353 26.8184 78.6879 26.1093C77.6354 25.6578 76.5115 25.3834 75.3643 25.298C75.1674 25.2857 74.9711 25.279 74.7811 25.279C74.2508 25.2694 73.7221 25.3382 73.2131 25.4832C73.0249 25.5393 72.8175 25.6066 72.7667 25.6206C72.7557 25.6251 72.7476 25.6285 72.7367 25.6318C72.7299 25.6348 72.7244 25.64 72.7212 25.6465C72.718 25.653 72.7172 25.6604 72.7189 25.6674C72.7207 25.6744 72.725 25.6805 72.731 25.6848C72.7369 25.6891 72.7443 25.6912 72.7517 25.6907C74.2596 25.8281 75.7321 26.216 77.1049 26.8375C78.2489 27.3411 79.3375 27.956 80.354 28.6725C80.9693 29.069 81.562 29.4977 82.1293 29.9567C83.0606 30.7047 83.9507 31.3832 84.7997 31.9921C84.7159 32.0482 84.6305 32.1043 84.5473 32.1548C83.8543 32.5918 83.1971 32.9666 82.5884 33.2768C81.8469 32.4992 81.9733 31.9966 81.9733 31.9966C81.8997 31.9326 81.8082 31.8914 81.7104 31.8781C81.6126 31.8648 81.513 31.8801 81.4241 31.9219C80.9795 32.2703 81.4299 32.7971 82.0016 33.3486C82.0484 33.3935 82.3256 33.6639 82.3279 33.6622C82.5385 33.8646 82.7342 34.0811 82.9135 34.3102C82.9216 34.318 82.9597 34.3854 82.9713 34.405C83.1017 34.6027 83.1694 34.8333 83.1661 35.0681C83.1627 35.3029 83.0883 35.5316 82.9522 35.7256C83.3155 36.1307 83.5297 35.95 83.5297 35.95C83.9438 35.7066 83.8762 35.0737 83.5338 34.4673C84.4257 33.9902 85.292 33.4691 86.1291 32.906C86.9654 33.4694 87.8311 33.9905 88.7227 34.4673C88.3808 35.0732 88.3127 35.7066 88.7227 35.95C88.7227 35.95 88.9381 36.1301 89.3002 35.7256C89.1641 35.5316 89.0897 35.3029 89.0863 35.0681C89.083 34.8333 89.1507 34.6027 89.2811 34.405C89.2921 34.3859 89.3302 34.3186 89.3389 34.3102C89.5182 34.0812 89.7139 33.8646 89.9245 33.6622C89.9245 33.6622 90.204 33.3941 90.2508 33.3486C90.819 32.7971 91.2701 32.2703 90.8283 31.9219C90.7394 31.8801 90.6398 31.8648 90.542 31.8781C90.4442 31.8914 90.3527 31.9326 90.2791 31.9966C90.2791 31.9966 90.4032 32.5015 89.664 33.2768C89.0553 32.966 88.3999 32.5918 87.7051 32.1548C87.622 32.1032 87.5365 32.0465 87.4527 31.9921C88.2998 31.3832 89.1891 30.7047 90.1208 29.9567C90.6891 29.4981 91.2823 29.0695 91.8978 28.6725C92.9144 27.956 94.0029 27.3411 95.1469 26.8375C96.5197 26.216 97.9922 25.8281 99.5001 25.6907C99.5078 25.6914 99.5154 25.6893 99.5215 25.6849C99.5277 25.6805 99.5319 25.6741 99.5335 25.6668C99.5351 25.6595 99.5338 25.6519 99.53 25.6455C99.5262 25.639 99.5201 25.6342 99.5129 25.6318" fill="#E6CD96"/>
<path d="M88.6886 13.544C88.6795 13.5432 88.6712 13.5389 88.6654 13.5322C88.6596 13.5254 88.6568 13.5166 88.6577 13.5078C88.6585 13.4991 88.6629 13.491 88.6699 13.4853C88.6769 13.4797 88.6859 13.477 88.6949 13.4778H88.6995C90.086 13.4403 91.4417 13.8796 92.5273 14.7182C92.5339 14.7234 92.5421 14.7264 92.5506 14.7267C92.5591 14.7269 92.5675 14.7245 92.5745 14.7198C92.5814 14.715 92.5866 14.7082 92.5893 14.7003C92.5919 14.6925 92.5918 14.684 92.5891 14.6762C92.2273 13.9249 91.6451 13.2943 90.9156 12.8635C90.1861 12.4327 89.3418 12.2209 88.4887 12.2548C88.36 12.2548 88.2346 12.2621 88.1105 12.2733C88.1026 12.275 88.0944 12.274 88.0873 12.2705C88.0801 12.2669 88.0744 12.2611 88.0712 12.2539C88.068 12.2467 88.0675 12.2387 88.0697 12.2312C88.0719 12.2237 88.0767 12.2172 88.0833 12.2127C88.637 11.843 89.2852 11.6294 89.9562 11.5956C89.9635 11.5955 89.9706 11.593 89.9764 11.5886C89.9822 11.5843 89.9864 11.5782 89.9883 11.5713C89.9902 11.5644 89.9899 11.5572 89.9872 11.5505C89.9845 11.5439 89.9797 11.5383 89.9735 11.5345C89.4743 11.2546 88.9075 11.1084 88.3311 11.1109C87.7349 11.1109 87.1508 11.2742 86.6459 11.5822L86.5882 11.5592C86.5119 11.2166 86.3846 10.8866 86.2105 10.5796C86.1995 10.5594 86.1781 10.5235 86.1591 10.4932C86.1557 10.4878 86.151 10.4834 86.1453 10.4803C86.1396 10.4773 86.1332 10.4757 86.1267 10.4758C86.12 10.4758 86.1134 10.4773 86.1074 10.4803C86.1015 10.4834 86.0964 10.4878 86.0927 10.4932C86.0736 10.5235 86.0522 10.5594 86.0413 10.5796C85.8671 10.8866 85.7399 11.2166 85.6636 11.5592L85.6058 11.5822C85.1009 11.2742 84.5168 11.1109 83.9207 11.1109C83.3442 11.1083 82.7774 11.2545 82.2782 11.5345C82.272 11.5382 82.2673 11.5438 82.2646 11.5504C82.2619 11.557 82.2615 11.5642 82.2634 11.5711C82.2652 11.5779 82.2693 11.584 82.275 11.5884C82.2807 11.5928 82.2877 11.5954 82.295 11.5956C82.9661 11.6293 83.6146 11.8429 84.1684 12.2127C84.1752 12.2172 84.1801 12.2238 84.1824 12.2314C84.1846 12.239 84.184 12.2471 84.1807 12.2543C84.1774 12.2616 84.1716 12.2674 84.1643 12.2709C84.157 12.2744 84.1486 12.2752 84.1407 12.2733C84.0171 12.2621 83.8906 12.2565 83.763 12.2548C82.91 12.2209 82.0657 12.4327 81.3361 12.8635C80.6066 13.2943 80.0244 13.9249 79.6627 14.6762C79.6599 14.684 79.6599 14.6925 79.6625 14.7003C79.6651 14.7082 79.6703 14.715 79.6773 14.7198C79.6843 14.7245 79.6926 14.7269 79.7012 14.7267C79.7097 14.7264 79.7179 14.7234 79.7245 14.7182C80.8101 13.8796 82.1657 13.4403 83.5522 13.4778H83.5568C83.5659 13.477 83.5749 13.4797 83.5819 13.4853C83.5888 13.491 83.5932 13.4991 83.5941 13.5078C83.5949 13.5166 83.5921 13.5254 83.5863 13.5322C83.5805 13.5389 83.5722 13.5432 83.5632 13.544C81.5529 13.9367 79.9745 15.2316 79.5541 16.8905C79.5521 16.8987 79.5528 16.9072 79.5562 16.915C79.5596 16.9227 79.5655 16.9291 79.573 16.9333C79.5805 16.9375 79.5892 16.9392 79.5977 16.9381C79.6063 16.9371 79.6143 16.9334 79.6205 16.9275C80.5156 16.1088 81.5931 15.5017 82.7691 15.1536C82.7772 15.1514 82.7858 15.1519 82.7936 15.155C82.8013 15.1581 82.8078 15.1637 82.8119 15.1708C82.8161 15.1779 82.8176 15.1862 82.8163 15.1942C82.8151 15.2023 82.811 15.2097 82.8049 15.2153C82.1907 15.7375 81.6946 16.3777 81.348 17.0955C81.0014 17.8134 80.8118 18.5933 80.7911 19.3859C80.7911 19.442 80.7911 19.5037 80.7911 19.5632C80.7911 19.598 80.8489 19.6148 80.8656 19.5839C81.3978 18.5742 82.1536 17.6916 83.0787 16.9993C83.0854 16.9951 83.0933 16.9931 83.1012 16.9934C83.1092 16.9937 83.1169 16.9964 83.1232 17.0012C83.1295 17.0059 83.1342 17.0124 83.1366 17.0198C83.1389 17.0272 83.1389 17.0352 83.1364 17.0425C82.8543 17.7887 82.7063 18.5764 82.6986 19.3713C82.691 20.0435 82.7816 20.7133 82.9678 21.3607C82.9702 21.3687 82.9754 21.3758 82.9824 21.3807C82.9895 21.3855 82.998 21.388 83.0067 21.3876C83.0153 21.3872 83.0236 21.384 83.0301 21.3785C83.0367 21.373 83.0412 21.3656 83.0428 21.3573C83.3264 20.0648 83.9051 18.8507 84.7361 17.8044C84.7598 17.773 84.8175 17.7965 84.8066 17.833C84.3334 19.0218 84.2824 20.3301 84.6616 21.5503C84.6651 21.558 84.6711 21.5644 84.6787 21.5686C84.6863 21.5727 84.695 21.5743 84.7037 21.5733C84.7123 21.5722 84.7203 21.5685 84.7266 21.5626C84.7328 21.5568 84.737 21.5491 84.7384 21.5408C84.7598 21.2042 85.8877 18.0451 86.1244 18.0451C86.3612 18.0451 87.4879 21.2042 87.5104 21.5408C87.5119 21.5491 87.516 21.5568 87.5223 21.5626C87.5285 21.5685 87.5366 21.5722 87.5452 21.5733C87.5538 21.5743 87.5626 21.5727 87.5702 21.5686C87.5777 21.5644 87.5837 21.558 87.5873 21.5503C87.9665 20.3301 87.9154 19.0218 87.4423 17.833C87.4313 17.7965 87.4891 17.773 87.5128 17.8044C88.3438 18.8507 88.9224 20.0648 89.206 21.3573C89.2077 21.3656 89.2122 21.373 89.2187 21.3785C89.2253 21.384 89.2336 21.3872 89.2422 21.3876C89.2508 21.388 89.2594 21.3855 89.2664 21.3807C89.2735 21.3758 89.2786 21.3687 89.2811 21.3607C89.4673 20.7133 89.5579 20.0435 89.5502 19.3713C89.5423 18.5765 89.3943 17.7888 89.1125 17.0425C89.1096 17.0346 89.1094 17.026 89.112 17.018C89.1146 17.01 89.1199 17.003 89.1269 16.9981C89.1339 16.9932 89.1424 16.9907 89.1511 16.9909C89.1597 16.9912 89.1681 16.9941 89.1748 16.9993C90.0981 17.6928 90.8528 18.5752 91.3855 19.5839C91.4005 19.6148 91.46 19.5985 91.46 19.5632C91.46 19.5037 91.46 19.4442 91.46 19.3859C91.4394 18.5933 91.2498 17.8134 90.9032 17.0955C90.5566 16.3777 90.0605 15.7375 89.4463 15.2153C89.4402 15.2095 89.4363 15.2018 89.4352 15.1936C89.4341 15.1854 89.4359 15.177 89.4403 15.1699C89.4447 15.1628 89.4515 15.1573 89.4595 15.1543C89.4674 15.1514 89.4762 15.1511 89.4844 15.1536C90.6595 15.5023 91.7361 16.1093 92.6306 16.9275C92.6369 16.9334 92.6448 16.9371 92.6534 16.9381C92.662 16.9392 92.6707 16.9375 92.6782 16.9333C92.6857 16.9291 92.6916 16.9227 92.695 16.915C92.6984 16.9072 92.6991 16.8987 92.6971 16.8905C92.276 15.2316 90.6977 13.9384 88.688 13.544" fill="#E6CD96"/>
<path d="M86.1255 15.9071C86.1255 15.9071 85.1622 23.7754 85.1622 26.9984C85.1622 30.2214 86.1255 30.4026 86.1255 30.4026C86.1255 30.4026 87.0848 30.2214 87.0848 26.9984C87.0848 23.7754 86.1255 15.9071 86.1255 15.9071Z" fill="#E6CD96"/>
<path d="M12.6486 8.94197C13.0211 8.95234 13.3827 8.81924 13.6546 8.5717C13.783 8.44911 13.8842 8.3022 13.9519 8.14008C14.0195 7.97796 14.0522 7.80407 14.0479 7.62919C14.0537 7.45061 14.0218 7.27277 13.9541 7.10662C13.8865 6.94048 13.7845 6.78954 13.6546 6.66312C13.3825 6.41593 13.0209 6.28307 12.6486 6.29341C12.4714 6.28994 12.2953 6.32085 12.1306 6.38433C11.9659 6.44782 11.8158 6.5426 11.6893 6.66312C11.5606 6.79043 11.4595 6.94152 11.3919 7.10745C11.3244 7.27339 11.2918 7.4508 11.296 7.62919C11.2917 7.80407 11.3244 7.97796 11.392 8.14008C11.4597 8.3022 11.5609 8.44911 11.6893 8.5717C11.8157 8.69247 11.9657 8.78746 12.1304 8.85105C12.2951 8.91464 12.4713 8.94555 12.6486 8.94197Z" fill="white"/>
<path d="M31.9939 8.94197C32.3664 8.95234 32.728 8.81924 32.9999 8.5717C33.1284 8.44911 33.2296 8.3022 33.2972 8.14008C33.3649 7.97796 33.3976 7.80407 33.3932 7.62919C33.399 7.45061 33.3671 7.27277 33.2995 7.10662C33.2318 6.94048 33.1299 6.78954 32.9999 6.66312C32.7278 6.41593 32.3663 6.28307 31.9939 6.29341C31.8167 6.28994 31.6406 6.32085 31.4759 6.38433C31.3112 6.44782 31.1612 6.5426 31.0347 6.66312C30.9067 6.79084 30.8062 6.94205 30.7391 7.10792C30.672 7.2738 30.6395 7.451 30.6437 7.62919C30.6394 7.80264 30.6713 7.97515 30.7376 8.13626C30.8039 8.29737 30.9032 8.44373 31.0294 8.56647C31.1557 8.68921 31.3062 8.78577 31.472 8.85032C31.6378 8.91486 31.8154 8.94604 31.9939 8.94197Z" fill="white"/>
<path d="M34.918 8.94197C35.2905 8.95234 35.6521 8.81924 35.924 8.5717C36.0524 8.44911 36.1536 8.3022 36.2213 8.14008C36.2889 7.97796 36.3216 7.80407 36.3173 7.62919C36.3231 7.45061 36.2911 7.27277 36.2235 7.10662C36.1559 6.94048 36.0539 6.78954 35.924 6.66312C35.6519 6.41593 35.2903 6.28307 34.918 6.29341C34.7407 6.28952 34.5645 6.32025 34.3997 6.38375C34.235 6.44726 34.085 6.54226 33.9587 6.66312C33.83 6.79043 33.7289 6.94152 33.6613 7.10745C33.5938 7.27339 33.5612 7.4508 33.5654 7.62919C33.5616 7.80271 33.5939 7.97519 33.6605 8.13624C33.7272 8.29728 33.8267 8.44355 33.953 8.56623C34.0794 8.6889 34.2301 8.78544 34.3959 8.85001C34.5618 8.91459 34.7393 8.94587 34.918 8.94197Z" fill="white"/>
<path d="M51.3018 10.9371C50.9409 11.1553 49.7171 11.7545 46.2994 12.472C45.0224 12.7071 43.8442 13.3002 42.91 14.1781C42.3214 14.7624 41.862 15.4574 41.5601 16.2206C41.2582 16.9837 41.1201 17.7988 41.1544 18.6157V24.1137C41.1542 24.1258 41.1565 24.1379 41.1611 24.1493C41.1657 24.1606 41.1726 24.1709 41.1813 24.1796C41.1901 24.1883 41.2005 24.1953 41.2121 24.2C41.2236 24.2048 41.236 24.2073 41.2486 24.2073H48.6932C48.6934 24.5547 48.6231 24.8988 48.4863 25.2197C48.3496 25.5407 48.1491 25.8324 47.8963 26.0781C47.6434 26.3238 47.3433 26.5187 47.0129 26.6517C46.6825 26.7847 46.3284 26.8531 45.9708 26.8531H41.4501C41.4386 26.853 41.4273 26.8558 41.4172 26.861C41.407 26.8663 41.3984 26.8739 41.3921 26.8832C41.3857 26.8924 41.3818 26.9031 41.3808 26.9142C41.3797 26.9253 41.3815 26.9365 41.386 26.9468L42.418 29.4018C42.4334 29.4389 42.4599 29.4707 42.4941 29.4931C42.5283 29.5155 42.5685 29.5275 42.6097 29.5275L45.9847 29.5213C47.4304 29.5183 48.8159 28.9583 49.8371 27.9642C50.8582 26.9701 51.4318 25.623 51.4318 24.2186V11.0094C51.4319 10.9946 51.4281 10.98 51.4205 10.9671C51.413 10.9542 51.402 10.9434 51.3888 10.936C51.3755 10.9286 51.3605 10.9247 51.3452 10.9248C51.3299 10.9249 51.315 10.9295 51.3018 10.9371ZM48.6811 21.5476H43.9028V18.6752C43.874 18.177 43.9595 17.6788 44.1531 17.2166C44.3466 16.7544 44.6434 16.3397 45.022 16.0025C45.253 15.8112 45.5085 15.6496 45.782 15.5217C46.2113 15.3178 46.6659 15.1686 47.1345 15.0779L48.6811 14.7621V21.5476Z" fill="white"/>
<path d="M38.2559 10.9365C37.8949 11.1547 36.6712 11.7539 33.2512 12.4714C31.9743 12.7073 30.7961 13.3003 29.8612 14.1774C29.2734 14.7623 28.8145 15.4575 28.5127 16.2205C28.2108 16.9835 28.0723 17.7983 28.1056 18.6151V21.5486H23.3123V6.35968C23.3124 6.34844 23.3097 6.33734 23.3044 6.32735C23.299 6.31736 23.2913 6.30879 23.2818 6.30237C23.2723 6.29595 23.2613 6.29189 23.2498 6.29054C23.2383 6.28919 23.2267 6.29058 23.2158 6.29461L20.6228 7.21299C20.6092 7.21798 20.5974 7.22686 20.589 7.23848C20.5807 7.2501 20.5762 7.2639 20.5761 7.27807V24.1293C20.576 24.1397 20.578 24.15 20.582 24.1596C20.5861 24.1693 20.592 24.178 20.5995 24.1854C20.607 24.1928 20.6159 24.1987 20.6258 24.2027C20.6356 24.2068 20.6462 24.2089 20.6569 24.209H38.3032C38.3252 24.2087 38.3462 24.2001 38.3617 24.185C38.3773 24.1699 38.3861 24.1495 38.3864 24.1282V11.0094C38.3866 10.9945 38.3827 10.9799 38.3752 10.967C38.3676 10.9541 38.3566 10.9434 38.3434 10.936C38.3302 10.9285 38.3152 10.9247 38.2999 10.9248C38.2846 10.9248 38.2696 10.9289 38.2565 10.9365M35.6323 21.5486H30.8569V18.6746C30.8281 18.1764 30.9136 17.6782 31.1071 17.216C31.3007 16.7538 31.5975 16.3391 31.9761 16.0019C32.2083 15.8111 32.4644 15.6495 32.7384 15.5211C33.1661 15.3172 33.6191 15.1681 34.0863 15.0773L35.6352 14.7615L35.6323 21.5486Z" fill="white"/>
<path d="M17.6886 10.9372C17.3253 11.1554 16.1016 11.7546 12.6856 12.4721C11.4077 12.7067 10.2286 13.2998 9.29389 14.1782C8.70563 14.7627 8.24647 15.4579 7.94458 16.2209C7.64269 16.984 7.50443 17.799 7.53827 18.6158V21.5477H5.12197C4.63722 21.4945 4.17809 21.3082 3.79832 21.0108C3.44629 20.7171 3.17037 20.3471 2.99289 19.9307C2.81541 19.5142 2.74135 19.063 2.77671 18.6136V13.6429C2.77668 13.6332 2.77431 13.6235 2.76977 13.6148C2.76524 13.6061 2.75868 13.5985 2.75061 13.5927C2.74253 13.5869 2.73317 13.583 2.72327 13.5813C2.71336 13.5796 2.70319 13.5801 2.69355 13.5829L0.0491382 14.3021C0.0351893 14.3055 0.0227916 14.3133 0.0139026 14.3243C0.00501351 14.3352 0.000139493 14.3488 5.00018e-05 14.3627V19.0562C-0.0382488 19.7876 0.0894334 20.5182 0.374057 21.1964C0.65868 21.8745 1.09329 22.4836 1.6471 22.9805C2.41902 23.6801 3.40744 24.1121 4.45841 24.2091H17.7359C17.7466 24.2092 17.7573 24.2072 17.7672 24.2032C17.7771 24.1992 17.7861 24.1933 17.7937 24.1859C17.8012 24.1785 17.8071 24.1696 17.8111 24.16C17.8151 24.1503 17.817 24.1399 17.8168 24.1295V11.0095C17.8171 10.9948 17.8134 10.9803 17.8061 10.9674C17.7987 10.9545 17.7879 10.9438 17.7748 10.9364C17.7617 10.9289 17.7468 10.925 17.7316 10.925C17.7165 10.9251 17.7016 10.9296 17.6886 10.9372ZM15.0655 21.5477H10.2895V18.6753C10.2602 18.1772 10.3452 17.679 10.5383 17.2168C10.7315 16.7546 11.028 16.3398 11.4064 16.0026C11.6387 15.8118 11.8948 15.6502 12.1687 15.5218C12.5971 15.3176 13.051 15.1684 13.5189 15.078L15.0655 14.7622V21.5477Z" fill="white"/>
<path d="M56.8188 6.91111L54.2229 7.82893C54.209 7.83359 54.1971 7.84241 54.1888 7.85411C54.1805 7.86582 54.1762 7.8798 54.1767 7.89401V24.1287C54.1765 24.1394 54.1786 24.1499 54.1827 24.1598C54.1868 24.1697 54.1929 24.1786 54.2007 24.1862C54.2084 24.1937 54.2177 24.1996 54.2278 24.2036C54.238 24.2077 54.2489 24.2096 54.2598 24.2095H56.8309C56.853 24.2093 56.8741 24.2008 56.8897 24.1857C56.9054 24.1706 56.9143 24.1501 56.9146 24.1287V6.97619C56.9144 6.9651 56.9116 6.95422 56.9062 6.94443C56.9008 6.93464 56.8932 6.92622 56.8838 6.91987C56.8745 6.91352 56.8637 6.90941 56.8524 6.90789C56.8411 6.90637 56.8296 6.90747 56.8188 6.91111Z" fill="white"/>
<path d="M54.2534 7.00933L56.8765 6.03204C56.8876 6.02815 56.8971 6.02107 56.904 6.01174C56.9108 6.00242 56.9145 5.9913 56.9146 5.97986V4.98069C56.9147 4.97155 56.9124 4.96253 56.9081 4.95441C56.9038 4.9463 56.8974 4.93934 56.8897 4.93414C56.8819 4.92895 56.873 4.92566 56.8637 4.92459C56.8543 4.92351 56.8448 4.92466 56.8361 4.92796L54.213 5.90525C54.2022 5.90944 54.1929 5.91672 54.1864 5.92613C54.1799 5.93555 54.1765 5.94665 54.1766 5.95798V6.95603C54.1766 6.96504 54.1789 6.97391 54.1832 6.9819C54.1874 6.98989 54.1936 6.99676 54.2012 7.00193C54.2088 7.00711 54.2176 7.01043 54.2268 7.01162C54.236 7.01281 54.2453 7.01183 54.254 7.00877" fill="white"/>
<path d="M56.9146 2.63122V3.64723C56.9143 3.66832 56.909 3.68906 56.8989 3.70777C56.8889 3.72648 56.8745 3.74264 56.8569 3.75494C56.5524 3.962 56.2183 4.12455 55.8653 4.23741C54.9413 4.48314 55.1145 5.53168 55.7394 5.34823C56.3458 5.17151 54.675 6.4826 54.6999 6.46521C54.7331 6.30709 54.7537 6.14673 54.7617 5.98554C54.595 5.87045 54.4562 5.72132 54.3552 5.54862C54.2541 5.37591 54.1932 5.18382 54.1766 4.98581C54.1766 4.37767 54.5139 3.71511 55.6891 3.33867C56.1483 3.22585 56.5565 2.9696 56.8511 2.60934C56.8554 2.60337 56.8615 2.59889 56.8686 2.59655C56.8757 2.5942 56.8834 2.59412 56.8905 2.59631C56.8977 2.5985 56.9039 2.60285 56.9084 2.60873C56.9128 2.6146 56.9152 2.6217 56.9152 2.62898" fill="white"/>
<path d="M3.61526 38.6226H7.5094L5.56955 33.4781L3.61526 38.6226ZM8.57721 41.6381L7.86341 39.6745H3.27742L2.54687 41.6381H0.750244L4.01836 33.7446C4.32755 33.0417 4.89459 32.4754 5.6094 32.1558C5.84685 32.0287 6.06236 31.8663 6.24812 31.6744L10.371 41.6387L8.57721 41.6381Z" fill="white"/>
<path d="M20.571 41.6386L18.2211 34.1334L15.8735 41.6386H14.3316L12.0175 33.6357C11.9657 33.4568 11.9572 33.2687 11.9928 33.0861C12.0283 32.9035 12.1069 32.7314 12.2223 32.5832C12.3378 32.435 12.487 32.3148 12.6582 32.232C12.8295 32.1492 13.0182 32.106 13.2095 32.1058L15.1828 40.1396L17.3254 32.9748C17.4003 32.7242 17.5571 32.5039 17.7721 32.3473C17.9871 32.1907 18.2486 32.1061 18.5173 32.1064H18.8569L21.2605 40.1402L23.0069 33.031C23.0715 32.7673 23.2258 32.5325 23.4449 32.3646C23.6639 32.1967 23.9349 32.1055 24.2139 32.1058H24.8693L22.1106 41.6386H20.571Z" fill="white"/>
<path d="M50.0845 41.6386V34.576C50.0845 33.9213 50.3522 33.2935 50.8287 32.8305C51.3053 32.3676 51.9516 32.1075 52.6255 32.1075H56.537C56.4867 32.4087 56.3278 32.6826 56.0887 32.8803C55.8495 33.0781 55.5458 33.1868 55.2318 33.1869H51.7419V36.3544H55.7937V37.4344H51.7419V41.642L50.0845 41.6386Z" fill="white"/>
<path d="M31.3264 33.1735C30.9733 33.1382 30.6167 33.1896 30.2893 33.323C29.962 33.4564 29.6744 33.6675 29.4529 33.937C29.1047 34.5525 28.9482 35.253 29.0025 35.9533V37.8916C29.0025 38.9576 29.2029 39.6813 29.6152 40.1104C29.8452 40.3136 30.1159 40.4683 30.4104 40.5649C30.7049 40.6614 31.0167 40.6977 31.3264 40.6715C31.6795 40.7067 32.0362 40.6552 32.3635 40.5217C32.6908 40.3882 32.9784 40.177 33.1998 39.9074C33.548 39.2921 33.7045 38.5918 33.6503 37.8916V33.7485C33.6483 33.4988 33.7179 33.2535 33.8512 33.04C33.5766 33.1176 33.2933 33.1624 33.0075 33.1735H31.3264ZM31.3264 41.734C30.6589 41.7514 29.993 41.6602 29.3565 41.4642C28.86 41.297 28.4169 41.007 28.071 40.6227C27.8111 40.3338 27.6227 39.9911 27.52 39.6207C27.391 39.1053 27.3327 38.5756 27.3468 38.0453V35.7025C27.3293 35.1335 27.3984 34.565 27.5518 34.0156C27.6793 33.614 27.9091 33.2503 28.22 32.9581C28.5782 32.6308 29.0071 32.3855 29.4755 32.24C30.0758 32.0722 30.699 31.9943 31.3235 32.0088C33.7051 32.0088 34.803 31.6374 35.3048 31.3317V38.0431C35.3222 38.6122 35.2531 39.1806 35.0998 39.7301C34.9719 40.1313 34.7421 40.4947 34.4316 40.787C34.0747 41.1134 33.6471 41.358 33.1802 41.5029C32.5771 41.6716 31.9509 41.7494 31.3235 41.7335" fill="white"/>
<path d="M40.7918 38.6226H44.6859L42.7484 33.4781L40.7918 38.6226ZM45.7584 41.638L45.0428 39.6745H40.4574L39.7269 41.638H37.9291L41.1955 33.744C41.5058 33.041 42.0735 32.4749 42.7888 32.1552C43.0248 32.0275 43.2391 31.8651 43.4241 31.6738L47.5463 41.638H45.7584Z" fill="white"/>
<path d="M32.178 39.129L31.3998 39.885L34.3816 42.7817L35.1598 42.0257L32.178 39.129Z" fill="white"/>
</g>
<defs>
<clipPath id="clip0_529_4696">
<rect width="104" height="48" fill="white"/>
</clipPath>
</defs>
</svg>
