<svg width="104" height="48" viewBox="0 0 104 48" fill="none" xmlns="http://www.w3.org/2000/svg">
<path d="M95.3562 5.17408C90.954 3.56833 87.3294 1.69496 86.1478 0C84.9661 1.67117 81.3354 3.56833 76.9638 5.15029C71.7719 7.02961 68.3126 9.81291 68.3126 17.3183V30.652C68.3126 38.1633 71.7719 40.9525 76.9638 42.82C81.366 44.4138 84.9967 46.2991 86.1478 47.9762C87.3294 46.2991 90.954 44.4079 95.3317 42.82C100.524 40.9466 103.983 38.1633 103.983 30.652V17.3421C103.983 9.8367 100.524 7.0534 95.3317 5.17408" fill="#007062"/>
<path d="M94.6154 7.22599C91.6864 6.24028 88.9018 4.88884 86.3315 3.20567L86.1846 3.09862L86.0315 3.21161C83.4534 4.90567 80.6528 6.25585 77.7048 7.22599C73.0516 8.92094 70.5413 10.9846 70.5413 17.2471V30.7472C70.5413 37.0216 73.0455 39.115 77.668 40.7802C80.6145 41.754 83.4146 43.104 85.9948 44.7946L86.1479 44.9076L86.2948 44.8005C88.8746 43.115 91.6697 41.7635 94.6093 40.7802C99.2319 39.109 101.742 37.0216 101.742 30.7472V17.2471C101.748 10.9846 99.238 8.88526 94.6154 7.22599ZM101.228 30.7472C101.228 36.6945 98.8401 38.7225 94.4379 40.3044C91.5152 41.2796 88.7333 42.6148 86.1601 44.2772C83.5802 42.6115 80.7897 41.2762 77.8578 40.3044C73.4557 38.7225 71.0679 36.7361 71.0679 30.7472V17.2471C71.0679 11.2998 73.4557 9.27778 77.8578 7.68987C80.7882 6.7173 83.5784 5.38419 86.1601 3.72308C88.733 5.38436 91.5151 6.71755 94.4379 7.68987C98.8401 9.27778 101.228 11.2582 101.228 17.2471V30.7472Z" fill="#E2C992"/>
<path d="M94.3951 34.0954C94.3135 34.0638 94.2258 34.0496 94.138 34.0538C94.0871 34.048 94.0358 34.048 93.9849 34.0538H93.9543L93.8624 34.0954L93.8012 34.1371H93.7706C93.7332 34.1736 93.7022 34.2158 93.6788 34.262C93.4875 34.3475 93.2746 34.3765 93.0665 34.3452C92.3872 34.2827 91.7232 34.1119 91.101 33.8397C90.8622 33.7445 90.6173 33.6375 90.3602 33.5185C90.3602 33.5185 89.8826 33.9884 89.7479 34.1133C89.599 34.2619 89.4896 34.4436 89.4295 34.6426L89.656 34.7496C90.7344 35.3149 91.9239 35.6514 93.1461 35.7369C93.3521 35.7376 93.5575 35.7157 93.7584 35.6715C93.9511 35.646 94.1361 35.5809 94.3008 35.4804C94.4655 35.3798 94.6062 35.2463 94.7135 35.0886C94.762 35.0036 94.7923 34.9099 94.8025 34.8132C94.8127 34.7165 94.8026 34.6188 94.7728 34.5259C94.7431 34.4331 94.6943 34.3471 94.6294 34.2731C94.5644 34.1991 94.4848 34.1387 94.3951 34.0954Z" fill="#E2C992"/>
<path d="M81.954 33.6137C81.6968 33.7326 81.4519 33.8397 81.2192 33.9348C80.5948 34.2066 79.9288 34.3774 79.2477 34.4404C79.0396 34.4735 78.8261 34.4445 78.6354 34.3571C78.6082 34.3117 78.5753 34.2697 78.5374 34.2322H78.5068C78.4876 34.2149 78.4671 34.199 78.4456 34.1846L78.3537 34.143H78.3231C78.2723 34.1368 78.2209 34.1368 78.17 34.143C78.0825 34.1423 77.9955 34.1563 77.9129 34.1846C77.3557 34.4166 77.5271 35.0292 77.5884 35.1779C77.6851 35.3578 77.8233 35.5137 77.9921 35.6333C78.161 35.753 78.3559 35.8332 78.5619 35.8678C78.7629 35.9116 78.9682 35.9335 79.1742 35.9332C80.4014 35.8168 81.5891 35.4478 82.6581 34.8507L82.8846 34.7437C82.824 34.5449 82.7148 34.3633 82.5662 34.2144C82.4315 34.0776 81.954 33.6256 81.954 33.6137Z" fill="#E2C992"/>
<path d="M96.8991 25.2995C95.7536 25.3836 94.6313 25.6572 93.5807 26.1083C92.0345 26.8167 90.583 27.7055 89.2581 28.7548C88.1315 29.5755 87.109 30.3784 86.1539 31.0683C85.1865 30.3724 84.1641 29.5755 83.0436 28.7548C81.7285 27.7102 80.2897 26.8217 78.7578 26.1083C77.7048 25.6577 76.5806 25.3842 75.4332 25.2995C75.2373 25.2995 75.0475 25.2995 74.8209 25.2995C74.2911 25.2913 73.7629 25.3594 73.2536 25.5017L72.8066 25.6385C72.7699 25.6385 72.8066 25.6979 72.8066 25.692C74.3107 25.8296 75.7792 26.2178 77.1475 26.8398C78.2908 27.3412 79.3781 27.9549 80.3925 28.6715C81.0078 29.0683 81.6005 29.4972 82.1681 29.9561C83.0987 30.6995 84.0049 31.3835 84.8376 31.9901L84.5865 32.1507C83.8885 32.5908 83.2395 32.9595 82.6273 33.2747C81.8926 32.5016 82.015 31.996 82.015 31.996C81.9413 31.9318 81.8496 31.8901 81.7516 31.8764C81.6535 31.8626 81.5534 31.8774 81.464 31.9187C81.0232 32.2696 81.464 32.7989 82.0395 33.3461L82.3701 33.6613C82.5788 33.8623 82.7731 34.0769 82.9518 34.3036C82.975 34.3324 82.9936 34.3645 83.0069 34.3987C83.1412 34.5942 83.2128 34.8239 83.2128 35.0589C83.2128 35.2938 83.1412 35.5235 83.0069 35.719C83.3743 36.1234 83.5885 35.945 83.5885 35.945C83.9988 35.7012 83.9314 35.0708 83.5885 34.4641C84.4821 33.9883 85.3487 33.4662 86.1845 32.9C87.0193 33.4769 87.8859 34.009 88.7805 34.4939C88.4438 35.0886 88.3764 35.7309 88.7805 35.9747C88.7805 35.9747 88.9948 36.1531 89.3622 35.7487C89.2279 35.5533 89.1563 35.3236 89.1563 35.0886C89.1563 34.8536 89.2279 34.6239 89.3622 34.4285L89.4173 34.3333C89.604 34.1042 89.8087 33.8894 90.0295 33.691L90.354 33.3758C90.9234 32.8286 91.3704 32.2993 90.9296 31.9485C90.8401 31.9071 90.7401 31.8924 90.642 31.9061C90.5439 31.9199 90.4523 31.9615 90.3785 32.0258C90.3785 32.0258 90.501 32.5313 89.7663 33.3044C89.154 32.9952 88.505 32.6205 87.807 32.1804L87.556 32.0198C88.4091 31.4132 89.2989 30.7352 90.2255 29.9859C90.7941 29.5282 91.3868 29.0995 92.001 28.7013C93.0154 27.9847 94.1028 27.3709 95.246 26.8695C96.6187 26.2466 98.091 25.8563 99.5992 25.7158C99.6359 25.7158 99.6482 25.6682 99.5992 25.6623H99.5686L99.1216 25.5255C98.613 25.3803 98.0843 25.3121 97.5542 25.3233C97.291 25.2816 97.095 25.2876 96.8991 25.2995Z" fill="#E2C992"/>
<path d="M79.5966 16.902C79.5963 16.9097 79.5982 16.9174 79.6022 16.9241C79.6061 16.9308 79.6119 16.9364 79.6189 16.9401C79.6259 16.9438 79.6338 16.9455 79.6418 16.9451C79.6497 16.9447 79.6574 16.9421 79.6639 16.9377C80.555 16.1154 81.6301 15.5047 82.8048 15.1535C82.8127 15.1511 82.8212 15.1514 82.8289 15.1542C82.8366 15.1571 82.843 15.1624 82.8473 15.1692C82.8515 15.1761 82.8533 15.1841 82.8522 15.1921C82.8512 15.2 82.8474 15.2074 82.8416 15.213C82.2292 15.7347 81.7347 16.374 81.389 17.0904C81.0434 17.8069 80.8542 18.5851 80.8334 19.376V19.5545C80.8334 19.5842 80.8946 19.602 80.9068 19.5545C81.434 18.5434 82.1896 17.661 83.1171 16.9734C83.1199 16.9695 83.1235 16.9661 83.1276 16.9636C83.1318 16.961 83.1364 16.9593 83.1412 16.9584C83.146 16.9576 83.151 16.9577 83.1558 16.9587C83.1606 16.9598 83.1651 16.9617 83.1691 16.9644C83.1732 16.9672 83.1766 16.9707 83.1792 16.9747C83.1818 16.9787 83.1836 16.9832 83.1845 16.9879C83.1854 16.9926 83.1852 16.9974 83.1842 17.002C83.1831 17.0067 83.1811 17.0111 83.1783 17.015C82.894 17.7595 82.7448 18.5463 82.7375 19.3404C82.7312 20.0115 82.8219 20.6801 83.0069 21.3267C83.0069 21.3362 83.0107 21.3453 83.0176 21.352C83.0245 21.3587 83.0339 21.3624 83.0436 21.3624C83.0534 21.3624 83.0627 21.3587 83.0696 21.352C83.0765 21.3453 83.0804 21.3362 83.0804 21.3267C83.361 20.0281 83.9408 18.8081 84.7763 17.7584C84.7763 17.7287 84.8559 17.7584 84.8437 17.7584C84.3694 18.9468 84.3176 20.2552 84.6967 21.4754C84.6967 21.4849 84.7006 21.4939 84.7075 21.5006C84.7144 21.5073 84.7237 21.5111 84.7335 21.5111C84.7432 21.5111 84.7525 21.5073 84.7594 21.5006C84.7663 21.4939 84.7702 21.4849 84.7702 21.4754C85.0537 20.4417 85.4159 19.4298 85.8539 18.4483C85.5723 21.0353 85.1865 24.901 85.1865 26.9231C85.1865 30.1465 86.1539 30.3308 86.1539 30.3308C86.1539 30.3308 87.1152 30.1465 87.1152 26.9231C87.1152 24.901 86.7356 21.0353 86.4478 18.4483C86.8871 19.43 87.2514 20.4417 87.5376 21.4754C87.5376 21.4849 87.5415 21.4939 87.5484 21.5006C87.5553 21.5073 87.5646 21.5111 87.5744 21.5111C87.5841 21.5111 87.5934 21.5073 87.6003 21.5006C87.6072 21.4939 87.6111 21.4849 87.6111 21.4754C87.9879 20.2553 87.9384 18.9483 87.4703 17.7584C87.4703 17.7227 87.5131 17.6989 87.5315 17.7584C88.3681 18.8075 88.9481 20.0277 89.2275 21.3267C89.2275 21.3362 89.2313 21.3453 89.2382 21.352C89.2451 21.3587 89.2544 21.3624 89.2642 21.3624C89.2739 21.3624 89.2833 21.3587 89.2902 21.352C89.2971 21.3453 89.3009 21.3362 89.3009 21.3267C89.486 20.6801 89.5766 20.0115 89.5703 19.3404C89.5635 18.5463 89.4143 17.7594 89.1295 17.015C89.1267 17.0111 89.1247 17.0067 89.1236 17.002C89.1226 16.9974 89.1225 16.9926 89.1233 16.9879C89.1242 16.9832 89.126 16.9787 89.1286 16.9747C89.1312 16.9707 89.1347 16.9672 89.1387 16.9644C89.1427 16.9617 89.1472 16.9598 89.152 16.9587C89.1568 16.9577 89.1618 16.9576 89.1666 16.9584C89.1714 16.9593 89.1761 16.961 89.1802 16.9636C89.1843 16.9661 89.1879 16.9695 89.1907 16.9734C90.1166 17.6626 90.8719 18.5446 91.401 19.5545C91.401 19.5545 91.4745 19.5545 91.4745 19.5545V19.376C91.4539 18.585 91.2649 17.8067 90.9193 17.0902C90.5736 16.3737 90.0789 15.7345 89.4662 15.213C89.4604 15.2074 89.4566 15.2 89.4556 15.1921C89.4546 15.1841 89.4563 15.1761 89.4605 15.1692C89.4648 15.1624 89.4713 15.1571 89.479 15.1542C89.4866 15.1514 89.4951 15.1511 89.503 15.1535C90.6777 15.5047 91.7528 16.1154 92.6439 16.9377C92.6504 16.9421 92.6581 16.9447 92.666 16.9451C92.674 16.9455 92.6819 16.9438 92.6889 16.9401C92.6959 16.9364 92.7017 16.9308 92.7056 16.9241C92.7096 16.9174 92.7115 16.9097 92.7112 16.902C92.2949 15.2427 90.7153 13.9284 88.707 13.5537C88.6642 13.5537 88.6703 13.4942 88.707 13.4942C90.0922 13.4537 91.4469 13.8945 92.5275 14.7372C92.5332 14.7451 92.5419 14.7505 92.5517 14.7521C92.5614 14.7538 92.5715 14.7516 92.5796 14.7461C92.5877 14.7406 92.5932 14.7322 92.595 14.7227C92.5967 14.7132 92.5945 14.7035 92.5888 14.6956C92.2325 13.9425 91.653 13.3098 90.9244 12.8786C90.1957 12.4474 89.3512 12.2372 88.4989 12.2751C88.3703 12.2751 88.2417 12.2751 88.1193 12.2751C88.1111 12.2751 88.1034 12.2719 88.0976 12.2663C88.0919 12.2608 88.0886 12.2532 88.0886 12.2453C88.0886 12.2374 88.0919 12.2299 88.0976 12.2243C88.1034 12.2187 88.1111 12.2156 88.1193 12.2156C88.6749 11.8525 89.3236 11.6466 89.9928 11.6209C90.0009 11.6209 90.0087 11.6177 90.0144 11.6122C90.0202 11.6066 90.0234 11.599 90.0234 11.5911C90.0234 11.5832 90.0202 11.5757 90.0144 11.5701C90.0087 11.5645 90.0009 11.5614 89.9928 11.5614C89.4965 11.2818 88.9317 11.138 88.358 11.1451C87.762 11.1411 87.1773 11.3042 86.6743 11.6149H86.6192C86.5399 11.2751 86.4143 10.9471 86.2457 10.6396L86.1906 10.5504C86.1873 10.5455 86.1827 10.5414 86.1774 10.5386C86.1721 10.5359 86.1661 10.5344 86.16 10.5344C86.154 10.5344 86.148 10.5359 86.1426 10.5386C86.1373 10.5414 86.1328 10.5455 86.1294 10.5504L86.0743 10.6396C85.9021 10.9461 85.7744 11.2744 85.6947 11.6149H85.6396C85.1357 11.3061 84.5517 11.1431 83.9559 11.1451C83.3825 11.14 82.8182 11.2837 82.3211 11.5614C82.313 11.5614 82.3052 11.5645 82.2995 11.5701C82.2938 11.5757 82.2905 11.5832 82.2905 11.5911C82.2905 11.599 82.2938 11.6066 82.2995 11.6122C82.3052 11.6177 82.313 11.6209 82.3211 11.6209C82.9884 11.6467 83.635 11.8527 84.1885 12.2156C84.1967 12.2156 84.2044 12.2187 84.2102 12.2243C84.2159 12.2299 84.2192 12.2374 84.2192 12.2453C84.2192 12.2532 84.2159 12.2608 84.2102 12.2663C84.2044 12.2719 84.1967 12.2751 84.1885 12.2751C84.06 12.2751 83.9375 12.2751 83.8089 12.2751C82.9566 12.2372 82.1121 12.4474 81.3834 12.8786C80.6548 13.3098 80.0753 13.9425 79.719 14.6956C79.7133 14.7035 79.7111 14.7132 79.7128 14.7227C79.7146 14.7322 79.7201 14.7406 79.7282 14.7461C79.7363 14.7516 79.7464 14.7538 79.7561 14.7521C79.7659 14.7505 79.7746 14.7451 79.7803 14.7372C80.8643 13.8964 82.2202 13.456 83.6069 13.4942C83.6498 13.4942 83.6559 13.5537 83.6069 13.5537C81.5742 13.9462 80.0007 15.2368 79.5966 16.902Z" fill="#E2C992"/>
<path d="M12.7254 8.95066C13.0956 8.95918 13.4551 8.82931 13.7295 8.58787C13.8589 8.46506 13.961 8.31778 14.0295 8.15513C14.0979 7.99247 14.1313 7.81791 14.1275 7.64222C14.1324 7.46375 14.0996 7.2862 14.0311 7.1205C13.9627 6.9548 13.86 6.80446 13.7295 6.67874C13.5955 6.55595 13.4378 6.46015 13.2654 6.39686C13.0931 6.33358 12.9095 6.30405 12.7254 6.31C12.548 6.30663 12.3717 6.33749 12.2067 6.40079C12.0417 6.46409 11.8913 6.55856 11.7641 6.67874C11.6378 6.80685 11.5387 6.95788 11.4725 7.1232C11.4064 7.28852 11.3744 7.46489 11.3784 7.64222C11.3741 7.81692 11.406 7.99067 11.4723 8.15313C11.5386 8.31559 11.6378 8.46344 11.7641 8.58787C11.8912 8.7078 12.0417 8.80171 12.2069 8.86403C12.372 8.92635 12.5483 8.95581 12.7254 8.95066Z" fill="#007062"/>
<path d="M32.0484 8.95066C32.423 8.96353 32.7879 8.83329 33.0648 8.58787C33.1931 8.46456 33.294 8.31705 33.3614 8.15442C33.4288 7.99179 33.4612 7.81748 33.4566 7.64222C33.4626 7.46413 33.431 7.28674 33.3636 7.12101C33.2962 6.95529 33.1945 6.80476 33.0648 6.67874C32.9311 6.5554 32.7734 6.45925 32.601 6.39593C32.4286 6.33261 32.2448 6.30339 32.0606 6.31C31.8842 6.30676 31.7088 6.33771 31.5448 6.40102C31.3808 6.46433 31.2315 6.55874 31.1055 6.67874C30.9772 6.80578 30.8765 6.95649 30.8092 7.12197C30.7419 7.28745 30.7094 7.46435 30.7136 7.64222C30.7085 7.81539 30.7399 7.98774 30.8058 8.14871C30.8717 8.30969 30.9707 8.4559 31.0968 8.57839C31.223 8.70089 31.3735 8.79709 31.5392 8.8611C31.7049 8.92511 31.8824 8.95559 32.0606 8.95066" fill="#007062"/>
<path d="M34.975 8.95067C35.3452 8.95918 35.7046 8.82932 35.9791 8.58787C36.1074 8.46456 36.2084 8.31705 36.2758 8.15442C36.3432 7.99179 36.3756 7.81748 36.371 7.64223C36.3756 7.46431 36.3432 7.28731 36.2759 7.12179C36.2086 6.95626 36.1077 6.80559 35.9791 6.67874C35.7077 6.43187 35.3467 6.29931 34.975 6.31C34.7985 6.3061 34.6229 6.33673 34.4588 6.40008C34.2947 6.46343 34.1454 6.5582 34.0198 6.67874C33.8916 6.80579 33.7908 6.95649 33.7235 7.12197C33.6562 7.28745 33.6237 7.46435 33.628 7.64223C33.6229 7.81539 33.6543 7.98774 33.7202 8.14872C33.7861 8.30969 33.8851 8.4559 34.0112 8.5784C34.1373 8.7009 34.2878 8.7971 34.4536 8.86111C34.6193 8.92512 34.7967 8.95559 34.975 8.95067Z" fill="#007062"/>
<path d="M51.3468 10.9488C50.9856 11.1629 49.7611 11.7636 46.3446 12.4773C45.0681 12.7163 43.8901 13.3091 42.9527 14.1841C42.366 14.7682 41.9082 15.4623 41.6071 16.2242C41.306 16.986 41.168 17.7994 41.2016 18.6148V24.116C41.2016 24.1412 41.212 24.1654 41.2303 24.1833C41.2487 24.2011 41.2736 24.2111 41.2996 24.2111H48.7386C48.7386 24.5576 48.6682 24.9007 48.5315 25.2207C48.3949 25.5408 48.1945 25.8315 47.942 26.0762C47.6895 26.3209 47.3898 26.5149 47.06 26.6469C46.7302 26.779 46.3768 26.8465 46.0201 26.8457H41.4955C41.4845 26.8469 41.4738 26.8505 41.4644 26.8562C41.455 26.862 41.447 26.8697 41.4411 26.8789C41.4352 26.888 41.4315 26.8984 41.4304 26.9091C41.4292 26.9199 41.4305 26.9307 41.4343 26.9409L42.4629 29.3911C42.4789 29.4287 42.5061 29.4606 42.5411 29.4829C42.576 29.5052 42.617 29.5167 42.6588 29.516H46.0263C47.4699 29.5129 48.8534 28.954 49.8736 27.9619C50.8939 26.9698 51.4677 25.6253 51.4693 24.223V11.0202C51.4705 11.0058 51.4676 10.9914 51.4608 10.9785C51.454 10.9657 51.4436 10.9549 51.4309 10.9475C51.4182 10.9401 51.4035 10.9363 51.3887 10.9365C51.3738 10.9367 51.3593 10.941 51.3468 10.9488ZM48.7263 21.5527H43.9507V18.6802C43.9214 18.1828 44.0062 17.6852 44.1989 17.2234C44.3916 16.7616 44.6874 16.3471 45.065 16.0099C45.2976 15.8225 45.5525 15.6628 45.8242 15.5341C46.2534 15.329 46.7083 15.1791 47.1773 15.0881L48.7263 14.7729V21.5527Z" fill="#007062"/>
<path d="M38.3118 10.9488C37.9628 11.1629 36.7383 11.7636 33.3096 12.4892C32.0343 12.7267 30.8578 13.3198 29.9238 14.196C29.3375 14.7782 28.8794 15.4702 28.5773 16.2298C28.2752 16.9895 28.1355 17.801 28.1666 18.6148V21.5468H23.3787V6.36947C23.3789 6.35817 23.3761 6.34701 23.3706 6.33708C23.365 6.32714 23.3569 6.31877 23.3471 6.31278C23.3372 6.3068 23.3259 6.30339 23.3143 6.3029C23.3027 6.30241 23.2911 6.30486 23.2807 6.31L20.6909 7.22587C20.6769 7.23068 20.6647 7.2395 20.6559 7.25119C20.6472 7.26287 20.6423 7.27685 20.6419 7.29129V24.1279C20.6419 24.138 20.644 24.1481 20.648 24.1574C20.6519 24.1668 20.6578 24.1754 20.6652 24.1825C20.6726 24.1897 20.6814 24.1954 20.691 24.1993C20.7007 24.2032 20.711 24.2052 20.7215 24.2052H38.3546C38.3774 24.2052 38.3992 24.1964 38.4152 24.1808C38.4313 24.1652 38.4403 24.144 38.4403 24.1219V11.038C38.4402 11.0235 38.4362 11.0092 38.4286 10.9967C38.421 10.9841 38.4102 10.9737 38.3972 10.9665C38.3841 10.9593 38.3694 10.9555 38.3544 10.9555C38.3395 10.9555 38.3247 10.9594 38.3118 10.9667M35.6913 21.5527H30.9156V18.6802C30.8876 18.1829 30.973 17.6857 31.1656 17.2241C31.3582 16.7625 31.6534 16.3479 32.03 16.0099C32.2646 15.8251 32.5192 15.6656 32.7892 15.5341C33.217 15.3309 33.6696 15.181 34.1361 15.0881L35.6852 14.7729V21.5527H35.6913Z" fill="#007062"/>
<path d="M17.7581 10.9488C17.3969 11.1629 16.1724 11.7636 12.756 12.4773C11.4794 12.7163 10.3014 13.3091 9.36403 14.1841C8.77735 14.7682 8.31947 15.4623 8.01839 16.2242C7.71731 16.986 7.57936 17.7994 7.61296 18.6148V21.5468H5.19452C4.70878 21.4956 4.24907 21.3074 3.87204 21.0056C3.52295 20.7138 3.24915 20.3467 3.07264 19.9335C2.89613 19.5204 2.82182 19.0728 2.85568 18.6267V13.6429C2.85515 13.6331 2.85235 13.6235 2.84748 13.6149C2.84262 13.6063 2.83581 13.5988 2.82757 13.5931C2.81934 13.5874 2.80988 13.5836 2.79991 13.5819C2.78994 13.5802 2.7797 13.5808 2.76997 13.5834L0.13112 14.309C0.117082 14.3118 0.104492 14.3193 0.0955427 14.3301C0.086593 14.341 0.0818497 14.3546 0.0821386 14.3685V19.0608C0.0432764 19.7919 0.170082 20.5223 0.453605 21.2005C0.737127 21.8787 1.17046 22.4882 1.723 22.986C2.49653 23.6821 3.48375 24.1124 4.53328 24.2111H17.801C17.8112 24.2112 17.8213 24.2091 17.8306 24.2052C17.8399 24.2012 17.8483 24.1954 17.8552 24.1882C17.8621 24.1809 17.8674 24.1723 17.8707 24.163C17.874 24.1536 17.8753 24.1437 17.8745 24.1338V11.0499C17.8775 11.0357 17.876 11.0209 17.8702 11.0075C17.8643 10.9942 17.8544 10.9829 17.8418 10.9751C17.8291 10.9673 17.8143 10.9635 17.7994 10.9641C17.7844 10.9648 17.7701 10.9698 17.7581 10.9786M15.1377 21.5527H10.3681V18.6802C10.3388 18.1828 10.4236 17.6852 10.6163 17.2234C10.809 16.7616 11.1048 16.3472 11.4825 16.0099C11.7151 15.8225 11.97 15.6628 12.2417 15.5341C12.6691 15.33 13.1218 15.1801 13.5886 15.0881L15.1377 14.7729V21.5527Z" fill="#007062"/>
<path d="M56.8572 6.92851L54.2612 7.84438C54.2472 7.84919 54.235 7.85802 54.2262 7.8697C54.2175 7.88138 54.2126 7.89537 54.2122 7.9098V24.1338C54.2122 24.1559 54.2212 24.1771 54.2373 24.1927C54.2534 24.2083 54.2752 24.2171 54.2979 24.2171H56.8694C56.8922 24.2171 56.914 24.2083 56.93 24.1927C56.9461 24.1771 56.9551 24.1559 56.9551 24.1338V6.99393C56.9565 6.98215 56.9546 6.97022 56.9495 6.95943C56.9444 6.94863 56.9364 6.93938 56.9264 6.93266C56.9163 6.92594 56.9046 6.92201 56.8924 6.92127C56.8802 6.92054 56.868 6.92305 56.8572 6.92851Z" fill="#007062"/>
<path d="M54.2979 7.02375L56.943 6.04837C56.9543 6.04452 56.9639 6.03722 56.9706 6.02756C56.9772 6.01791 56.9804 6.00642 56.9797 5.99484V4.99567C56.9792 4.98661 56.9766 4.97777 56.972 4.96985C56.9675 4.96192 56.9611 4.95512 56.9534 4.94995C56.9458 4.94479 56.937 4.9414 56.9277 4.94004C56.9185 4.93869 56.909 4.93941 56.9001 4.94214L54.2551 5.94726C54.2438 5.95111 54.2341 5.95841 54.2275 5.96806C54.2209 5.97772 54.2177 5.9892 54.2183 6.00079V6.99401C54.2179 7.00358 54.2198 7.01311 54.224 7.0218C54.2281 7.03048 54.2343 7.03807 54.2422 7.04391C54.25 7.04975 54.2591 7.05367 54.2688 7.05534C54.2785 7.057 54.2885 7.05637 54.2979 7.05348" fill="#007062"/>
<path d="M56.943 2.65246V3.66948C56.9426 3.69082 56.9367 3.71173 56.9261 3.73039C56.9154 3.74905 56.9002 3.76489 56.8818 3.77653C56.5759 3.98129 56.242 4.14344 55.8899 4.25827C54.9653 4.50212 55.1429 5.54887 55.7613 5.37044C56.3797 5.19202 54.6959 6.50046 54.7265 6.48856C54.7579 6.33148 54.7784 6.17252 54.7878 6.01277C54.6161 5.90044 54.4722 5.7526 54.3663 5.57984C54.2605 5.40709 54.1953 5.21372 54.1755 5.0136C54.1755 4.41885 54.5184 3.74085 55.6878 3.36616C56.1451 3.25057 56.5526 2.99641 56.8512 2.64057C56.8512 2.60489 56.9185 2.64057 56.9185 2.64057" fill="#007062"/>
<path d="M3.67622 38.6155H7.57035L5.64778 33.471L3.67622 38.6155ZM8.65409 41.6309L7.96221 39.6623H3.35783L2.62921 41.6309H0.83522L4.0987 33.7386C4.40416 33.0353 4.97 32.4686 5.68451 32.1507C5.9229 32.023 6.13972 31.8605 6.32741 31.6689L10.442 41.6309H8.65409Z" fill="#007062"/>
<path d="M20.6361 41.6309L18.291 34.1252L15.9215 41.6309H14.403L12.0886 33.6316C12.0328 33.45 12.0225 33.2581 12.0585 33.0719C12.0946 32.8857 12.1758 32.7105 12.2956 32.561C12.4154 32.4115 12.5703 32.2919 12.7473 32.2123C12.9243 32.1326 13.1183 32.0952 13.3132 32.1031L15.2847 40.1262L17.4216 32.9893C17.4916 32.7418 17.6421 32.5229 17.8506 32.3653C18.0592 32.2078 18.3146 32.1199 18.5788 32.115H18.9217L21.328 40.144L23.0669 33.0428C23.1303 32.7756 23.2868 32.5378 23.51 32.3698C23.7331 32.2019 24.0092 32.1139 24.2914 32.1209H24.9527L22.1974 41.6368L20.6361 41.6309Z" fill="#007062"/>
<path d="M50.1345 41.6309V34.5713C50.1377 33.9218 50.4044 33.2997 50.8766 32.8399C51.3488 32.3801 51.9886 32.1197 52.6572 32.115H56.5697C56.52 32.4159 56.3614 32.6898 56.1222 32.8872C55.8831 33.0845 55.5793 33.1925 55.2655 33.1915H51.7938V36.3614H55.841V37.4379H51.7938V41.6309H50.1345Z" fill="#007062"/>
<path d="M31.3872 33.1677C31.0336 33.131 30.6762 33.1822 30.3485 33.3164C30.0208 33.4506 29.7335 33.6634 29.5136 33.9349C29.1627 34.5473 29.0051 35.2464 29.0606 35.9452V37.8781C28.9746 38.6676 29.1927 39.46 29.6728 40.1024C29.904 40.3047 30.1754 40.4586 30.4703 40.5548C30.7652 40.651 31.0773 40.6873 31.3872 40.6615C31.7344 40.6921 32.0839 40.6386 32.4045 40.5058C32.725 40.3729 33.0067 40.1648 33.2241 39.9002C33.5763 39.2862 33.7339 38.5848 33.6772 37.884V33.7208C33.6751 33.4693 33.7451 33.2222 33.8792 33.0071C33.604 33.0834 33.3203 33.1273 33.0343 33.138L31.3872 33.1677ZM31.3872 41.7201C30.7106 41.7419 30.0352 41.6493 29.3912 41.4465C28.8957 41.2787 28.4529 40.9899 28.1054 40.608C27.8464 40.3196 27.658 39.978 27.5543 39.6088C27.4339 39.1021 27.3825 38.5822 27.4013 38.0625V35.6835C27.3827 35.1154 27.4528 34.5479 27.6094 34.0003C27.7369 33.5969 27.9664 33.2309 28.2768 32.9358C28.6386 32.6113 29.0691 32.3677 29.5381 32.2221C30.1348 32.0547 30.7541 31.9765 31.375 31.9901C33.7507 31.9901 34.8528 31.6214 35.3487 31.3181V38.0625C35.3658 38.632 35.2977 39.2009 35.1467 39.7515C35.0144 40.1525 34.7832 40.5159 34.4732 40.8102C34.1252 41.1342 33.7067 41.3782 33.2486 41.5239C32.6513 41.6874 32.0322 41.7636 31.4117 41.7499" fill="#007062"/>
<path d="M40.8466 38.6155H44.7408L42.7998 33.471L40.8466 38.6155ZM45.8061 41.6309L45.0959 39.6682H40.5099L39.7996 41.6309H37.9628L41.2263 33.7446C41.5422 33.0304 42.127 32.4603 42.8611 32.1507C43.0866 32.0176 43.2925 31.8556 43.4733 31.6689L47.6001 41.6309H45.8061Z" fill="#007062"/>
<path d="M32.2294 39.1212L31.4547 39.8743L34.4387 42.7708L35.2134 42.0178L32.2294 39.1212Z" fill="#007062"/>
</svg>
