<svg width="23" height="31" viewBox="0 0 23 31" fill="none" xmlns="http://www.w3.org/2000/svg">
<path d="M0 0.484192V30.5244H22.5V0.484192H0ZM5.76188 24.0872L4.02375 22.0981L4.6875 21.3396L5.76188 22.5691L7.77375 20.2667L8.4375 21.0253L5.76188 24.0872ZM5.76188 16.5772L4.02375 14.5881L4.6875 13.8296L5.76188 15.0591L7.77375 12.7567L8.4375 13.5152L5.76188 16.5772ZM5.76188 9.06711L4.02469 7.07802L4.6875 6.3195L5.76188 7.54901L7.77375 5.24664L8.4375 6.00515L5.76188 9.06711ZM16.875 24.0872H10.3125V23.0144H16.875V24.0872ZM16.875 21.9415H10.3125V20.8686H16.875V21.9415ZM16.875 16.5772H10.3125V15.5043H16.875V16.5772ZM16.875 14.4314H10.3125V13.3586H16.875V14.4314ZM16.875 9.06711H10.3125V7.99425H16.875V9.06711ZM16.875 6.92138H10.3125V5.84852H16.875V6.92138Z" fill="white"/>
</svg>
