<svg width="30" height="30" viewBox="0 0 30 30" fill="none" xmlns="http://www.w3.org/2000/svg">
<path fill-rule="evenodd" clip-rule="evenodd" d="M11.188 4.1911C7.71627 5.00547 5.00547 7.71627 4.1911 11.188C3.60297 13.6954 3.60297 16.3046 4.1911 18.812C5.00547 22.2838 7.71627 24.9945 11.1881 25.8089C13.6954 26.397 16.3046 26.397 18.812 25.8089C22.2838 24.9945 24.9945 22.2838 25.8089 18.812C26.397 16.3046 26.397 13.6954 25.8089 11.1881C24.9945 7.71627 22.2838 5.00547 18.812 4.1911C16.3046 3.60297 13.6954 3.60297 11.188 4.1911ZM13.1039 14.6354C13.3126 14.4474 13.4479 14.3271 13.5491 14.2474L14.8413 16.1684C15.014 16.4276 15.1861 16.686 15.3573 16.878C15.551 17.0953 15.8323 17.3315 16.2459 17.3835C16.6595 17.4355 16.9905 17.2761 17.232 17.1135C17.4453 16.9699 17.676 16.7621 17.9075 16.5536L20.0731 14.6046C20.3934 14.3164 20.4194 13.8231 20.1311 13.5028C19.8429 13.1825 19.3495 13.1565 19.0293 13.4448L16.8961 15.3646C16.6873 15.5525 16.552 15.6729 16.4508 15.7526C16.3725 15.6503 16.2711 15.5003 16.1154 15.2665L15.1588 13.8316C14.986 13.5723 14.8138 13.3139 14.6428 13.122C14.4489 12.9048 14.1676 12.6685 13.754 12.6165C13.3404 12.5645 13.0094 12.7239 12.7679 12.8865C12.5546 13.0301 12.3239 13.2379 12.0924 13.4464L9.92684 15.3954C9.60657 15.6836 9.5806 16.1769 9.86885 16.4971C10.1571 16.8175 10.6504 16.8434 10.9707 16.5551L13.1039 14.6354ZM13.5491 14.2474L14.817 16.1321L13.8846 14.7334C13.7288 14.4998 13.6275 14.3496 13.5491 14.2474Z" fill="#444444"/>
</svg>
