<svg width="28" height="28" viewBox="0 0 28 28" fill="none" xmlns="http://www.w3.org/2000/svg">
<path fill-rule="evenodd" clip-rule="evenodd" d="M9 0.506409C13.8325 0.506409 17.75 2.45605 17.75 4.86136V6.72777C17.75 7.41495 17.1904 7.97204 16.5 7.97204H15.25C13.6619 8.77856 11.4483 9.21631 9 9.21631C6.55165 9.21631 4.33814 8.77856 2.75 7.97204V9.83844C2.75 10.7414 4.89754 11.4947 7.75066 11.6675C8.43974 11.7093 9 12.2619 9 12.9491C9 13.6363 8.43958 14.1981 7.75063 14.1543C5.80343 14.0306 4.06299 13.6159 2.75 12.9491V14.8155C2.75 15.7185 4.89754 16.4718 7.75066 16.6446C8.43974 16.6864 9 17.239 9 17.9262C9 18.6134 8.43915 19.1755 7.75055 19.1264C3.50991 18.8247 0.25 17.0097 0.25 14.8155V4.86136C0.25 2.45605 4.1675 0.506409 9 0.506409ZM2.75 4.86136C2.75 3.83064 5.54824 2.99495 9 2.99495C12.4518 2.99495 15.25 3.83064 15.25 4.86136C15.25 5.89208 12.4518 6.72777 9 6.72777C5.54824 6.72777 2.75 5.89208 2.75 4.86136Z" fill="#444444"/>
<path fill-rule="evenodd" clip-rule="evenodd" d="M27.75 13.5713C27.75 11.1661 23.8325 9.21631 19 9.21631C14.1675 9.21631 10.25 11.1661 10.25 13.5713V23.5254C10.25 25.9306 14.1675 27.8804 19 27.8804C23.8325 27.8804 27.75 25.9306 27.75 23.5254V13.5713ZM12.75 23.5254C12.75 24.5562 15.5482 25.3918 19 25.3918C22.4518 25.3918 25.25 24.5562 25.25 23.5254V21.659C23.6619 22.4657 21.4484 22.9033 19 22.9033C16.5516 22.9033 14.3381 22.4657 12.75 21.659V23.5254ZM19 20.4148C15.5482 20.4148 12.75 19.5791 12.75 18.5483V16.6819C14.3381 17.4886 16.5516 17.9262 19 17.9262C21.4484 17.9262 23.6619 17.4886 25.25 16.6819V18.5483C25.25 19.5791 22.4518 20.4148 19 20.4148ZM19 11.7049C15.5482 11.7049 12.75 12.5405 12.75 13.5713C12.75 14.602 15.5482 15.4377 19 15.4377C22.4518 15.4377 25.25 14.602 25.25 13.5713C25.25 12.5405 22.4518 11.7049 19 11.7049Z" fill="#444444"/>
</svg>
