<svg width="12" height="14" viewBox="0 0 12 14" fill="none" xmlns="http://www.w3.org/2000/svg">
<path d="M6.63546 3.76703C6.84274 3.50845 6.80114 3.13085 6.5425 2.92361C6.28394 2.71637 5.90634 2.75798 5.69914 3.01656L6.63546 3.76703ZM1.4489 9.27902L1.90332 9.67078C1.90801 9.66534 1.91259 9.65982 1.91708 9.65422L1.4489 9.27902ZM1.3121 9.61342L0.713266 9.5743L0.712738 9.58566L1.3121 9.61342ZM1.2001 12.0318L0.600738 12.0041C0.599362 12.0338 0.600202 12.0637 0.603266 12.0933L1.2001 12.0318ZM1.8297 12.5814L1.84931 13.1811C1.88933 13.1797 1.92911 13.1745 1.96807 13.1652L1.8297 12.5814ZM4.2297 12.0126L4.3681 12.5965L4.37738 12.5941L4.2297 12.0126ZM4.5377 11.8174L5.00058 12.1993L5.00578 12.1928L4.5377 11.8174ZM9.83778 6.16718C10.0451 5.90862 10.0035 5.53102 9.74506 5.32371C9.48658 5.1164 9.1089 5.15792 8.90162 5.41646L9.83778 6.16718ZM5.70162 3.0164C5.49434 3.2749 5.53578 3.65253 5.79434 3.85985C6.05282 4.06717 6.43042 4.02569 6.63778 3.76719L5.70162 3.0164ZM7.4401 1.80779L7.90818 2.18319C7.91602 2.17336 7.92362 2.16328 7.9309 2.15297L7.4401 1.80779ZM8.7433 1.55179L9.12714 1.09064C9.10802 1.07473 9.08794 1.06004 9.06706 1.04662L8.7433 1.55179ZM10.5329 3.04139L10.9575 2.61752C10.9445 2.60447 10.9309 2.59204 10.9167 2.58024L10.5329 3.04139ZM10.5257 4.35179L10.1057 3.92328C10.0887 3.93995 10.0727 3.95761 10.0578 3.97618L10.5257 4.35179ZM8.90162 5.41646C8.69418 5.67486 8.7357 6.05222 8.9941 6.25966C9.2525 6.4671 9.63034 6.42558 9.83778 6.16718L8.90162 5.41646ZM6.76306 3.30288C6.71394 2.97517 6.4085 2.74931 6.08082 2.79842C5.75306 2.84753 5.52722 3.153 5.57634 3.48071L6.76306 3.30288ZM9.4505 6.3863C9.77882 6.34174 10.0088 6.03934 9.96426 5.71102C9.91962 5.38265 9.6173 5.15264 9.2889 5.19725L9.4505 6.3863ZM5.69914 3.01656L0.980714 8.90374L1.91708 9.65422L6.63546 3.76703L5.69914 3.01656ZM0.994474 8.88718C0.828586 9.07958 0.729802 9.32078 0.713266 9.5743L1.91083 9.65246C1.91039 9.65918 1.90775 9.66566 1.90332 9.67078L0.994474 8.88718ZM0.712738 9.58566L0.600738 12.0041L1.79946 12.0596L1.91146 9.64118L0.712738 9.58566ZM0.603266 12.0933C0.668602 12.7269 1.2128 13.2019 1.84931 13.1811L1.81008 11.9817C1.80752 11.9818 1.80627 11.9814 1.80545 11.9811C1.80431 11.9807 1.80279 11.9799 1.80125 11.9785C1.7997 11.9772 1.7987 11.9758 1.79813 11.9748C1.79772 11.974 1.79719 11.9728 1.79693 11.9702L0.603266 12.0933ZM1.96807 13.1652L4.3681 12.5965L4.0913 11.4288L1.69133 11.9976L1.96807 13.1652ZM4.37738 12.5941C4.62178 12.5321 4.8401 12.3938 5.00058 12.1993L4.07482 11.4356C4.07674 11.4333 4.07922 11.4317 4.08202 11.431L4.37738 12.5941ZM5.00578 12.1928L9.83778 6.16718L8.90162 5.41646L4.06962 11.4421L5.00578 12.1928ZM6.63778 3.76719L7.90818 2.18319L6.97202 1.4324L5.70162 3.0164L6.63778 3.76719ZM7.9309 2.15297C8.04178 1.99527 8.25722 1.95294 8.41954 2.05697L9.06706 1.04662C8.36362 0.595854 7.42994 0.779262 6.9493 1.46262L7.9309 2.15297ZM8.35946 2.01294L10.1491 3.50254L10.9167 2.58024L9.12714 1.09064L8.35946 2.01294ZM10.1083 3.46527C10.169 3.52614 10.2029 3.60878 10.2024 3.6948L11.4024 3.70139C11.4047 3.29522 11.2445 2.905 10.9575 2.61752L10.1083 3.46527ZM10.2024 3.6948C10.202 3.78081 10.1671 3.86307 10.1057 3.92328L10.9457 4.78031C11.2358 4.496 11.4002 4.10756 11.4024 3.70139L10.2024 3.6948ZM10.0578 3.97618L8.90162 5.41646L9.83778 6.16718L10.9936 4.72741L10.0578 3.97618ZM5.57634 3.48071C5.85578 5.34575 7.58178 6.64022 9.4505 6.3863L9.2889 5.19725C8.07058 5.3628 6.9453 4.51882 6.76306 3.30288L5.57634 3.48071Z" fill="white"/>
</svg>
