<svg width="11" height="13" viewBox="0 0 11 13" fill="none" xmlns="http://www.w3.org/2000/svg">
<path d="M6.03536 2.9671C6.24264 2.70853 6.20104 2.33092 5.9424 2.12368C5.68384 1.91645 5.30624 1.95806 5.09904 2.21663L6.03536 2.9671ZM0.8488 8.47909L1.30322 8.87086C1.30791 8.86542 1.3125 8.85989 1.31698 8.85429L0.8488 8.47909ZM0.712 8.8135L0.113168 8.77438L0.11264 8.78573L0.712 8.8135ZM0.600001 11.2319L0.00064057 11.2041C-0.000735431 11.2339 0.000104569 11.2637 0.00316857 11.2934L0.600001 11.2319ZM1.2296 11.7815L1.24922 12.3812C1.28923 12.3798 1.32901 12.3745 1.36797 12.3653L1.2296 11.7815ZM3.6296 11.2127L3.768 11.7965L3.77728 11.7942L3.6296 11.2127ZM3.9376 11.0175L4.40048 11.3993L4.40568 11.3929L3.9376 11.0175ZM9.23768 5.36726C9.44496 5.1087 9.40344 4.7311 9.14496 4.52378C8.88648 4.31647 8.5088 4.35799 8.30152 4.61654L9.23768 5.36726ZM5.10152 2.21647C4.89424 2.47498 4.93568 2.8526 5.19424 3.05993C5.45272 3.26725 5.83032 3.22576 6.03768 2.96726L5.10152 2.21647ZM6.84 1.00786L7.30808 1.38326C7.31592 1.37343 7.32352 1.36335 7.3308 1.35304L6.84 1.00786ZM8.1432 0.751863L8.52704 0.290711C8.50792 0.274807 8.48784 0.260111 8.46696 0.246695L8.1432 0.751863ZM9.9328 2.24146L10.3574 1.81759C10.3444 1.80454 10.3308 1.79211 10.3166 1.78031L9.9328 2.24146ZM9.9256 3.55186L9.5056 3.12335C9.48864 3.14002 9.47264 3.15769 9.45768 3.17626L9.9256 3.55186ZM8.30152 4.61654C8.09408 4.87494 8.1356 5.2523 8.394 5.45974C8.6524 5.66718 9.03024 5.62566 9.23768 5.36726L8.30152 4.61654ZM6.16296 2.50295C6.11384 2.17524 5.8084 1.94938 5.48072 1.9985C5.15296 2.0476 4.92712 2.35307 4.97624 2.68078L6.16296 2.50295ZM8.8504 5.58638C9.17872 5.54182 9.40872 5.23942 9.36416 4.9111C9.31952 4.58273 9.0172 4.35271 8.6888 4.39733L8.8504 5.58638ZM5.09904 2.21663L0.380616 8.10381L1.31698 8.85429L6.03536 2.9671L5.09904 2.21663ZM0.394376 8.08726C0.228488 8.27966 0.129704 8.52086 0.113168 8.77438L1.31073 8.85254C1.31029 8.85926 1.30766 8.86574 1.30322 8.87086L0.394376 8.08726ZM0.11264 8.78573L0.00064057 11.2041L1.19936 11.2597L1.31136 8.84126L0.11264 8.78573ZM0.00316857 11.2934C0.0685046 11.9269 0.612705 12.402 1.24922 12.3812L1.20998 11.1818C1.20742 11.1819 1.20617 11.1815 1.20535 11.1812C1.20421 11.1808 1.2027 11.18 1.20115 11.1786C1.1996 11.1773 1.1986 11.1759 1.19803 11.1749C1.19762 11.1741 1.1971 11.1729 1.19683 11.1703L0.00316857 11.2934ZM1.36797 12.3653L3.768 11.7965L3.4912 10.6289L1.09123 11.1977L1.36797 12.3653ZM3.77728 11.7942C4.02168 11.7321 4.24 11.5939 4.40048 11.3993L3.47472 10.6357C3.47664 10.6334 3.47912 10.6318 3.48192 10.6311L3.77728 11.7942ZM4.40568 11.3929L9.23768 5.36726L8.30152 4.61654L3.46952 10.6421L4.40568 11.3929ZM6.03768 2.96726L7.30808 1.38326L6.37192 0.632471L5.10152 2.21647L6.03768 2.96726ZM7.3308 1.35304C7.44168 1.19534 7.65712 1.15302 7.81944 1.25704L8.46696 0.246695C7.76352 -0.204073 6.82984 -0.0206647 6.3492 0.662695L7.3308 1.35304ZM7.75936 1.21302L9.54896 2.70262L10.3166 1.78031L8.52704 0.290711L7.75936 1.21302ZM9.50816 2.66534C9.56888 2.72622 9.6028 2.80886 9.60232 2.89487L10.8023 2.90146C10.8046 2.4953 10.6444 2.10507 10.3574 1.81759L9.50816 2.66534ZM9.60232 2.89487C9.60192 2.98089 9.56704 3.06314 9.5056 3.12335L10.3456 3.98038C10.6357 3.69607 10.8001 3.30763 10.8023 2.90146L9.60232 2.89487ZM9.45768 3.17626L8.30152 4.61654L9.23768 5.36726L10.3935 3.92748L9.45768 3.17626ZM4.97624 2.68078C5.25568 4.54582 6.98168 5.8403 8.8504 5.58638L8.6888 4.39733C7.47048 4.56287 6.3452 3.7189 6.16296 2.50295L4.97624 2.68078Z" fill="#444444"/>
</svg>
