<svg width="27" height="31" viewBox="0 0 27 31" fill="none" xmlns="http://www.w3.org/2000/svg">
<path d="M13.125 0.100037C10.5291 0.100037 7.99154 0.980951 5.83315 2.63138C3.67475 4.28181 1.99249 6.62763 0.999087 9.3722C0.00568684 12.1168 -0.254232 15.1368 0.252199 18.0504C0.75863 20.964 2.00867 23.6404 3.84423 25.741C5.67979 27.8416 8.01845 29.2721 10.5644 29.8516C13.1104 30.4312 15.7494 30.1338 18.1477 28.9969C20.546 27.8601 22.5959 25.9349 24.038 23.4649C25.4802 20.9948 26.25 18.0908 26.25 15.1201C26.2461 11.1379 24.862 7.32012 22.4015 4.50428C19.9409 1.68844 16.6048 0.104523 13.125 0.100037ZM13.125 27.9945C10.1413 27.9945 7.27984 26.6381 5.17005 24.2237C3.06027 21.8093 1.87501 18.5346 1.87501 15.1201C1.87501 11.7056 3.06027 8.431 5.17005 6.01658C7.27984 3.60217 10.1413 2.24577 13.125 2.24577V15.1201L21.0761 24.2195C20.0334 25.4171 18.7942 26.367 17.4297 27.0148C16.0652 27.6627 14.6023 27.9956 13.125 27.9945Z" fill="#444444"/>
</svg>
